<?xml version="1.0" standalone="no"?>
<!DOCTYPE svg PUBLIC "-//W3C//DTD SVG 20010904//EN"
 "http://www.w3.org/TR/2001/REC-SVG-20010904/DTD/svg10.dtd">
<svg version="1.0" xmlns="http://www.w3.org/2000/svg"
 width="668.000000pt" height="661.000000pt" viewBox="0 0 668.000000 661.000000"
 preserveAspectRatio="xMidYMid meet">

<g transform="translate(0.000000,661.000000) scale(0.100000,-0.100000)"
fill="#000000" stroke="none">
<path d="M2524 6403 c4 -43 9 -88 12 -99 5 -20 3 -21 -43 -17 -57 5 -218 32
-241 40 -10 4 -5 -7 12 -25 17 -18 25 -32 20 -32 -6 0 -56 15 -112 34 -56 19
-102 31 -102 27 0 -21 23 -70 31 -66 9 6 84 -66 100 -97 14 -26 -11 -24 -46 4
l-27 21 16 -30 15 -31 -47 -5 c-26 -3 -89 -9 -141 -13 l-94 -7 24 -19 24 -20
-104 6 c-96 5 -103 4 -89 -11 9 -9 38 -24 65 -33 94 -35 122 -50 144 -81 l23
-32 -33 6 c-19 4 -39 7 -46 7 -8 0 -40 23 -72 51 l-58 52 58 -57 c31 -32 57
-61 57 -65 0 -3 -48 -30 -107 -58 l-108 -51 53 -1 c28 -1 52 3 52 7 0 7 78 32
101 32 28 0 -15 -28 -49 -33 -41 -5 -242 -74 -256 -88 -12 -11 16 -42 71 -77
23 -15 43 -30 43 -34 0 -4 -41 -28 -91 -54 -50 -25 -89 -47 -87 -50 3 -2 52 2
109 10 57 7 106 11 109 9 3 -3 -11 -17 -30 -33 l-35 -28 25 -6 c14 -3 43 -7
64 -8 l39 -3 -58 -40 -57 -39 24 -21 c13 -11 35 -27 48 -36 24 -16 24 -16 6
-45 -10 -16 -30 -41 -44 -56 -14 -15 -24 -30 -21 -32 2 -2 22 -7 43 -10 22 -4
41 -8 41 -9 5 -6 -8 -77 -14 -77 -12 0 -145 86 -148 96 -2 6 13 18 34 27 l38
15 -30 1 -30 1 28 19 c47 31 67 71 35 71 -5 0 -6 -5 -3 -10 10 -15 -12 -38
-59 -63 -40 -20 -40 -21 -16 -27 l25 -7 -28 -8 -29 -8 29 -23 c15 -13 57 -40
92 -60 60 -34 62 -37 41 -48 -13 -6 -22 -15 -22 -19 1 -5 25 -23 54 -40 l53
-32 6 -65 c7 -62 48 -158 57 -132 2 7 7 10 12 7 4 -3 11 12 15 32 8 45 27 82
51 104 15 13 31 16 72 12 49 -5 51 -7 32 -20 -38 -27 -20 -31 31 -7 28 14 53
23 55 21 3 -2 -19 -19 -48 -38 -67 -44 -76 -60 -58 -95 l15 -28 3 35 c4 42 15
55 63 80 59 29 80 25 40 -9 -30 -24 -33 -32 -26 -60 3 -18 16 -38 26 -46 15
-10 17 -15 7 -19 -7 -2 -10 -7 -6 -11 3 -4 38 12 77 35 50 30 71 48 71 62 0
11 6 25 14 31 8 6 18 27 21 47 6 33 4 38 -34 68 -23 18 -41 39 -41 46 0 8 -5
17 -11 21 -8 5 -10 -1 -7 -19 l5 -26 -123 4 c-69 3 -137 10 -155 18 l-33 13
48 27 c27 15 53 24 59 20 5 -3 7 -2 4 4 -7 11 34 33 63 33 11 0 20 4 20 9 0
10 58 35 78 34 6 0 12 3 12 9 0 5 5 6 10 3 6 -3 10 -1 10 5 0 7 7 10 15 6 8
-3 15 -1 15 5 0 6 7 8 16 5 8 -3 12 -2 9 4 -3 6 1 10 9 10 8 0 52 18 98 39
104 49 222 93 253 95 13 0 21 5 17 10 -3 5 2 7 11 3 9 -3 23 0 31 8 37 38 22
-10 -17 -49 -10 -12 -27 -33 -36 -47 -29 -46 -80 -99 -93 -97 -7 2 -12 -3 -10
-10 3 -14 -27 -43 -63 -64 -17 -9 -16 -6 4 16 14 14 22 26 19 26 -10 0 -45
-36 -51 -53 -8 -21 -39 -16 -69 11 -10 8 -18 11 -18 5 0 -14 39 -53 53 -53 9
0 8 -3 -1 -9 -10 -6 -10 -10 2 -20 15 -13 11 -45 -5 -35 -5 3 -9 -2 -9 -10 0
-10 6 -13 15 -10 13 5 14 2 6 -20 -7 -16 -7 -27 -1 -31 6 -4 10 -24 10 -47 0
-35 2 -39 15 -28 8 7 12 16 9 21 -3 5 1 9 8 9 9 0 9 3 2 8 -19 12 -21 36 -5
50 9 8 11 11 5 8 -6 -3 -11 1 -11 8 0 11 7 10 31 -3 17 -10 38 -18 46 -19 8 0
24 -2 35 -4 14 -2 20 3 21 17 2 33 3 34 31 20 15 -8 30 -12 35 -9 5 3 14 1 21
-5 8 -6 18 -6 27 -1 12 8 11 10 -6 10 -29 0 -28 43 1 48 38 7 42 24 5 20 -34
-3 -35 -2 -38 34 -4 49 10 74 59 99 43 21 61 21 34 -1 -20 -17 -19 -69 2 -92
15 -17 15 -19 -3 -33 -31 -23 2 -18 86 15 41 16 67 23 58 16 -23 -17 -23 -26
1 -26 26 0 61 46 61 79 0 15 5 32 12 39 9 9 9 12 0 12 -7 0 -12 5 -12 11 0 5
6 7 13 3 6 -4 4 2 -6 13 -48 55 -182 76 -230 37 -12 -10 1 6 29 35 47 49 54
53 97 53 47 0 104 -31 89 -47 -4 -5 0 -6 10 -2 11 4 18 -1 22 -18 3 -13 14
-26 24 -30 34 -12 97 -101 102 -147 l6 -43 5 43 c4 38 1 48 -28 82 -18 21 -33
42 -33 47 0 5 -9 16 -20 26 -11 9 -20 24 -20 33 0 21 31 76 49 88 7 4 21 16
31 26 33 33 53 38 88 24 17 -8 32 -19 32 -25 0 -6 12 -23 28 -38 15 -14 41
-42 59 -61 17 -19 47 -48 67 -65 30 -25 36 -36 36 -68 0 -21 7 -69 16 -108 12
-54 19 -69 34 -69 19 0 50 -71 50 -114 0 -27 35 -51 47 -33 4 6 9 90 10 184 1
143 5 178 19 202 9 16 22 27 28 25 6 -2 23 14 39 35 29 43 97 81 141 81 37 0
94 -28 111 -54 27 -42 58 -206 52 -275 -3 -36 -3 -59 0 -51 2 8 6 21 9 28 3
10 13 7 36 -11 18 -13 47 -32 63 -42 l30 -17 -30 23 c-79 62 -95 81 -95 110
l0 29 32 -27 c40 -36 56 -51 95 -96 17 -20 37 -37 45 -37 10 0 9 -3 -2 -11
-12 -8 -11 -9 6 -5 11 4 41 -1 65 -10 28 -10 103 -19 204 -24 88 -5 172 -13
188 -19 36 -14 160 -4 262 21 135 32 157 39 152 44 -3 3 -33 -2 -66 -12 -34
-9 -64 -15 -66 -12 -3 2 18 10 46 17 37 10 56 21 67 40 20 35 122 84 151 73
21 -7 21 -9 -11 -32 -17 -14 -50 -35 -73 -47 -51 -28 -38 -30 16 -2 22 11 101
79 175 152 74 73 151 141 171 151 l37 20 75 -26 c132 -46 150 -56 165 -91 91
-206 105 -232 142 -253 29 -17 43 -20 68 -13 60 17 94 11 127 -23 17 -18 43
-41 57 -51 l27 -18 -30 5 c-16 3 -52 8 -80 10 l-50 6 50 -16 c91 -28 334 -7
415 36 55 29 100 72 100 96 0 19 -12 30 -62 55 -80 41 -141 62 -132 47 5 -8 2
-9 -10 -5 -10 4 -24 7 -32 7 -8 0 -32 16 -52 36 -20 20 -50 43 -67 51 -16 9
-43 27 -60 41 -32 27 -241 132 -263 132 -7 0 -34 11 -61 25 -35 17 -78 27
-152 35 -57 6 -132 14 -165 18 -37 5 -83 4 -115 -3 -51 -10 -218 -72 -229 -85
-9 -10 -82 -38 -190 -72 -94 -30 -115 -33 -205 -30 -59 1 -108 -2 -121 -9 -16
-8 -41 -6 -108 10 -48 12 -104 21 -125 21 -20 0 -61 7 -91 16 -74 21 -157 41
-201 48 -21 4 -53 18 -73 31 -20 14 -44 25 -52 25 -18 0 -201 97 -210 112 -3
5 14 0 37 -12 36 -17 40 -18 23 -3 -12 10 -36 26 -52 35 -22 11 -33 26 -37 50
-5 28 1 46 39 111 25 43 46 82 46 87 0 6 -11 8 -26 4 l-26 -7 20 40 c21 41 39
113 28 113 -4 0 -24 -11 -45 -24 l-39 -25 -6 37 c-3 20 -6 62 -6 93 0 70 -10
81 -31 32 l-16 -38 -6 116 c-6 117 -12 149 -28 149 -5 0 -27 -30 -50 -66 l-42
-66 -31 57 c-62 113 -95 162 -96 138 0 -31 -11 -28 -40 11 -68 90 -115 144
-121 140 -13 -7 -39 -110 -39 -149 l0 -37 -77 70 c-120 106 -156 127 -128 71
9 -17 15 -33 13 -35 -3 -2 -36 26 -75 61 -75 69 -100 81 -88 43 11 -39 23
-103 20 -107 -2 -2 -29 11 -59 28 -31 17 -62 31 -69 31 -8 0 -31 11 -52 25
-50 34 -61 28 -30 -17 14 -20 25 -40 25 -43 0 -7 -99 76 -141 118 -45 45 -53
37 -45 -50z m882 -195 c8 -16 14 -38 12 -50 -2 -16 -9 -12 -35 26 -32 45 -63
109 -63 128 0 14 68 -69 86 -104z m89 -70 c23 -49 26 -74 6 -52 -10 11 -42
104 -35 104 3 0 16 -23 29 -52z m170 -146 c-2 -2 -11 8 -20 22 -15 23 -16 32
-4 78 l13 53 7 -75 c4 -41 6 -76 4 -78z m-1660 88 c3 -5 -9 -8 -30 -6 -48 4
-57 16 -12 16 20 0 38 -4 42 -10z m-264 -379 c13 -11 22 -21 19 -23 -3 -3 -22
-14 -43 -26 -38 -22 -38 -22 -76 -3 -20 11 -43 26 -50 35 -14 17 0 23 74 29
22 2 43 4 46 5 4 1 17 -7 30 -17z m1977 -203 c13 -28 24 -103 16 -111 -8 -7
-64 13 -64 24 0 16 23 59 32 59 5 0 4 9 -2 19 -12 24 -13 31 -2 31 5 0 14 -10
20 -22z m12 -133 c14 -17 7 -43 -15 -52 -24 -8 -37 10 -29 41 7 29 25 34 44
11z m-1859 -155 c4 -30 11 -79 15 -108 l7 -52 -34 6 c-43 9 -39 5 -51 56 -7
30 -6 69 3 130 l13 87 20 -32 c11 -18 23 -57 27 -87z m1150 63 c10 -11 10 -14
2 -9 -7 4 -23 9 -34 11 -32 6 -36 15 -7 15 14 0 32 -8 39 -17z m-60 -90 c13
-17 13 -17 -6 -3 -11 8 -22 16 -24 17 -2 2 0 3 6 3 6 0 17 -8 24 -17z m-16
-21 c17 -10 31 -18 33 -18 2 -1 -11 -15 -28 -32 -26 -27 -30 -28 -30 -11 0 11
-12 31 -26 45 -20 20 -33 25 -60 22 -40 -5 -43 -1 -11 12 28 12 83 3 122 -18z
m-145 -62 c0 -5 -7 -10 -15 -10 -8 0 -15 5 -15 10 0 6 7 10 15 10 8 0 15 -4
15 -10z m-1035 -50 c3 -5 0 -10 -9 -10 -8 0 -21 -3 -30 -6 -9 -3 -16 -1 -16 4
0 9 15 16 42 21 4 0 10 -3 13 -9z m819 -99 c3 -5 -1 -11 -9 -14 -9 -4 -12 -1
-8 9 6 16 10 17 17 5z m3866 -116 c-25 -13 -52 -24 -60 -24 -8 -1 8 10 35 23
65 32 83 32 25 1z m-4280 -9 c0 -3 -4 -8 -10 -11 -5 -3 -10 -1 -10 4 0 6 5 11
10 11 6 0 10 -2 10 -4z m4180 -26 c-14 -4 -36 -8 -50 -9 -20 -1 -22 1 -10 9 8
5 31 9 50 9 32 -1 33 -2 10 -9z"/>
<path d="M2106 6237 c3 -10 9 -15 12 -12 3 3 0 11 -7 18 -10 9 -11 8 -5 -6z"/>
<path d="M1533 5493 c3 -5 -16 -16 -43 -23 -28 -8 -50 -16 -50 -20 0 -15 70
-70 131 -104 84 -46 101 -47 25 -1 -32 19 -62 35 -67 35 -5 0 -25 14 -44 32
l-36 31 58 19 c32 10 68 17 81 15 12 -3 22 0 22 4 0 5 -8 9 -17 9 -10 0 -29 3
-42 7 -15 4 -22 2 -18 -4z"/>
<path d="M3907 5359 c7 -7 15 -10 18 -7 3 3 -2 9 -12 12 -14 6 -15 5 -6 -5z"/>
<path d="M2835 5280 c-3 -5 -2 -10 4 -10 5 0 13 5 16 10 3 6 2 10 -4 10 -5 0
-13 -4 -16 -10z"/>
<path d="M3810 5260 c-39 -8 -77 -38 -113 -89 -36 -50 -62 -114 -53 -130 4 -5
2 -12 -3 -16 -14 -8 -3 -35 26 -64 30 -31 30 -68 -2 -93 -18 -14 -23 -24 -16
-36 4 -9 11 -34 15 -55 11 -62 57 -60 69 2 4 16 19 44 36 63 30 34 34 51 32
125 -1 45 -29 83 -62 83 -16 0 -53 39 -46 47 2 1 18 3 36 5 37 3 49 14 53 49
2 13 9 30 16 38 9 9 10 17 2 26 -8 9 -6 14 5 19 10 3 15 -1 15 -14 0 -10 11
-31 24 -47 13 -15 31 -46 40 -68 33 -77 -5 -276 -59 -311 -26 -17 -59 -78 -52
-97 2 -7 11 3 21 20 21 41 77 103 93 103 6 0 20 19 31 43 18 39 19 54 12 194
-7 140 -9 153 -31 176 -27 28 -53 36 -89 27z"/>
<path d="M4238 5263 c7 -3 16 -2 19 1 4 3 -2 6 -13 5 -11 0 -14 -3 -6 -6z"/>
<path d="M2795 5250 c-3 -6 1 -7 9 -4 18 7 21 14 7 14 -6 0 -13 -4 -16 -10z"/>
<path d="M6020 5246 c0 -3 9 -10 20 -16 11 -6 20 -8 20 -6 0 3 -9 10 -20 16
-11 6 -20 8 -20 6z"/>
<path d="M2376 5185 c-12 -25 -14 -40 -7 -53 7 -12 10 -13 11 -3 0 8 6 19 14
25 18 14 25 58 10 63 -6 2 -19 -12 -28 -32z"/>
<path d="M6100 5196 c0 -2 7 -7 16 -10 8 -3 12 -2 9 4 -6 10 -25 14 -25 6z"/>
<path d="M6140 5176 c0 -2 8 -10 18 -17 15 -13 16 -12 3 4 -13 16 -21 21 -21
13z"/>
<path d="M2220 5083 c0 -5 5 -15 10 -23 8 -12 10 -11 10 8 0 12 -4 22 -10 22
-5 0 -10 -3 -10 -7z"/>
<path d="M6260 5086 c0 -2 8 -10 18 -17 15 -13 16 -12 3 4 -13 16 -21 21 -21
13z"/>
<path d="M6300 5056 c0 -3 9 -10 20 -16 11 -6 20 -8 20 -6 0 3 -9 10 -20 16
-11 6 -20 8 -20 6z"/>
<path d="M1974 5035 c-10 -8 -14 -14 -9 -15 15 0 40 18 34 24 -3 3 -14 -1 -25
-9z"/>
<path d="M2880 5015 c0 -8 7 -15 16 -15 14 0 14 3 4 15 -7 8 -14 15 -16 15 -2
0 -4 -7 -4 -15z"/>
<path d="M3120 4984 c-11 -27 -13 -51 -5 -42 8 8 25 68 19 68 -2 0 -9 -12 -14
-26z"/>
<path d="M2632 4910 c12 -16 28 -30 36 -30 11 0 12 3 3 14 -9 11 -9 15 1 20 7
3 2 3 -11 0 -14 -4 -21 -2 -17 4 3 5 -1 13 -10 16 -25 10 -26 7 -2 -24z"/>
<path d="M3951 4894 c-8 -21 -16 -46 -17 -54 -8 -45 -40 -101 -79 -140 -50
-49 -105 -72 -152 -64 -26 5 -33 11 -33 30 0 13 -5 24 -11 24 -14 0 -9 -67 7
-101 19 -39 17 -179 -2 -179 -8 0 -17 -7 -20 -15 -11 -28 -66 -18 -106 19 -46
42 -73 52 -96 34 -16 -12 -16 -11 -2 6 14 18 13 19 -8 14 -19 -5 -21 -4 -11 8
9 11 8 14 -5 14 -10 0 -27 -5 -39 -11 -19 -9 -19 -8 3 11 25 21 25 22 2 17
-12 -3 -20 -1 -17 4 4 5 -14 29 -38 55 l-44 45 2 -31 c1 -18 8 -36 16 -41 9
-6 10 -9 2 -9 -6 0 -15 5 -18 10 -10 16 -25 2 -25 -22 0 -12 -8 -30 -17 -41
-17 -18 -17 -19 2 -33 11 -8 29 -23 40 -32 65 -56 79 -63 122 -60 51 2 55 11
12 28 -22 10 -27 15 -17 21 7 5 18 9 23 9 6 0 4 -4 -4 -9 -11 -7 -8 -11 10
-17 13 -4 28 -7 32 -6 5 1 6 -2 3 -7 -13 -20 15 -21 41 -2 25 18 32 19 66 8
38 -12 39 -13 32 -52 -3 -22 -11 -42 -16 -46 -6 -3 -10 -10 -8 -15 1 -5 -9
-14 -22 -21 -13 -7 -32 -22 -41 -33 -10 -12 -22 -19 -28 -15 -6 4 -7 -1 -3
-11 5 -13 3 -16 -10 -11 -13 5 -17 1 -17 -16 0 -18 -2 -19 -10 -7 -9 13 -10
13 -10 0 0 -8 -24 -41 -53 -72 -29 -31 -57 -63 -63 -71 -7 -8 -23 -22 -36 -33
-13 -10 -29 -28 -36 -39 -9 -17 -10 -12 -6 24 12 90 -49 215 -95 195 -27 -11
-303 -15 -296 -5 3 6 12 8 20 4 10 -3 15 1 15 12 0 9 -4 13 -10 10 -5 -3 -15
3 -22 15 -20 32 -94 26 -213 -15 -86 -30 -163 -75 -128 -75 7 0 10 -6 7 -13
-3 -8 7 -18 23 -24 27 -10 26 -11 -18 -12 -25 -1 -68 -8 -95 -16 -37 -11 -50
-12 -57 -2 -6 8 -7 6 -3 -5 3 -10 1 -18 -4 -18 -6 0 -10 4 -10 8 0 5 -8 17
-18 28 -38 41 -101 132 -95 138 4 3 1 6 -6 6 -8 0 -11 8 -8 20 3 11 2 18 -2
15 -5 -2 -14 8 -22 23 -8 15 -19 32 -25 37 -6 6 -27 34 -48 62 -34 48 -40 52
-59 41 -41 -22 -87 -90 -86 -128 1 -22 2 -21 9 6 12 54 64 114 98 114 12 0 10
-13 -6 -53 -16 -39 -16 -40 17 -94 16 -27 33 -60 36 -76 4 -15 11 -30 16 -33
9 -5 27 -44 52 -110 15 -41 15 -42 -9 -65 -13 -12 -24 -30 -24 -38 1 -12 3
-11 12 4 12 20 28 35 40 35 3 0 -11 -18 -32 -40 -29 -30 -46 -40 -70 -40 -40
0 -47 20 -25 76 9 25 15 47 12 50 -3 3 -10 -12 -17 -33 -7 -21 -25 -60 -41
-86 -25 -40 -26 -46 -10 -37 11 5 28 10 38 10 12 0 8 -6 -15 -20 -23 -14 -41
-39 -59 -78 -27 -62 -53 -119 -89 -199 -47 -104 -57 -159 -50 -266 5 -68 4
-97 -3 -92 -6 3 -12 18 -12 33 -1 21 -2 23 -6 7 -3 -11 -10 -23 -17 -27 -8 -6
-7 -8 2 -8 25 0 11 -18 -30 -36 -54 -24 -129 -84 -200 -159 -87 -93 -165 -296
-155 -406 l5 -57 -52 -25 c-83 -40 -198 -64 -181 -37 3 6 -1 7 -9 4 -9 -3 -16
-1 -16 4 0 6 9 14 20 17 11 3 20 10 20 15 0 5 7 7 15 4 9 -4 15 0 15 9 0 17
-21 27 -55 27 -12 0 -28 7 -35 15 -14 17 -10 18 22 6 46 -17 78 -21 78 -11 0
5 -7 10 -15 10 -38 0 -91 32 -102 60 -10 27 -9 30 10 31 17 1 18 2 5 6 -27 7
-21 20 13 32 39 13 52 14 45 2 -9 -14 32 -1 45 15 9 11 8 14 -5 14 -9 0 -16
-4 -16 -10 0 -5 -4 -10 -9 -10 -13 0 -1 37 17 52 13 11 15 10 9 -4 -3 -10 -2
-18 4 -18 11 0 29 41 22 53 -2 4 -8 5 -13 2 -5 -3 -11 -1 -15 5 -3 5 2 10 11
10 14 0 15 3 6 12 -9 9 -18 9 -37 0 -20 -10 -30 -9 -48 2 -12 8 -41 17 -65 21
-31 5 -46 13 -52 28 -7 17 -9 18 -9 5 -1 -9 4 -20 10 -24 7 -4 -2 -20 -23 -43
-31 -33 -31 -34 -2 -8 34 30 60 34 90 13 11 -8 37 -17 57 -21 20 -4 37 -11 37
-16 0 -24 -35 -58 -75 -74 -44 -16 -60 -44 -35 -60 5 -3 10 -21 10 -39 0 -35
30 -76 56 -76 8 0 12 -4 9 -10 -3 -5 -17 -10 -31 -10 -28 0 -31 -16 -7 -42 15
-17 14 -18 -40 -20 -32 -1 -67 -2 -79 -2 -13 -1 -27 -6 -33 -12 -5 -7 -23 -15
-39 -18 -15 -4 -27 -9 -24 -11 2 -2 28 2 58 9 30 8 93 17 140 21 108 8 166 21
242 52 33 13 62 23 64 21 6 -7 -88 -98 -100 -98 -7 0 -30 -13 -51 -29 -22 -16
-45 -27 -52 -24 -7 3 -15 -2 -19 -10 -3 -8 -32 -34 -64 -56 -57 -40 -150 -134
-150 -152 0 -6 -35 -8 -77 -7 -74 3 -78 2 -78 -19 0 -11 -3 -24 -7 -28 -8 -8
22 -75 34 -75 4 0 4 8 1 18 -6 15 -5 15 10 4 9 -8 21 -11 27 -7 5 3 10 2 10
-3 0 -11 -30 -26 -44 -23 -5 1 -6 -6 -2 -15 5 -14 4 -15 -8 -4 -9 6 -15 15
-14 18 0 4 -5 21 -11 39 -7 18 -12 35 -11 39 1 4 -4 10 -11 14 -9 6 -8 12 4
25 10 9 17 19 17 23 0 3 -27 31 -59 63 l-59 56 26 28 c20 20 22 24 7 16 -26
-14 -65 -47 -65 -56 0 -3 5 -3 10 0 6 3 15 3 21 -1 17 -10 -10 -23 -40 -18
-18 3 -22 2 -12 -5 11 -7 11 -9 0 -14 -8 -3 6 -4 30 -4 39 2 46 -1 61 -28 9
-16 19 -39 23 -50 18 -61 64 -155 93 -191 19 -23 34 -45 34 -50 0 -5 -38 -27
-84 -48 -46 -21 -98 -52 -115 -68 -17 -17 -33 -29 -34 -27 -1 2 -13 24 -26 49
-13 25 -30 52 -36 60 -7 8 -20 30 -30 49 -12 25 -19 30 -25 21 -6 -9 -2 -19 8
-27 9 -7 13 -13 8 -13 -5 0 -1 -10 10 -22 l19 -23 -24 20 c-22 18 -24 18 -18
2 4 -11 3 -16 -3 -12 -6 3 -10 2 -10 -4 0 -5 5 -13 10 -16 7 -4 8 -11 2 -18
-6 -7 -11 -21 -13 -31 -2 -11 -13 -20 -24 -22 -19 -3 -19 -2 -3 10 13 10 17
24 14 54 -2 23 0 39 4 37 7 -4 20 17 20 31 0 15 -23 -1 -32 -23 -19 -43 -59
-93 -74 -93 -10 0 -15 -15 -16 -47 -1 -27 -2 -57 -2 -69 -1 -11 -7 -28 -15
-37 -7 -10 -10 -17 -5 -18 5 0 25 -2 44 -4 51 -6 140 40 140 71 0 17 4 22 15
18 8 -4 15 -1 15 4 0 6 -8 13 -17 15 -14 4 -12 5 5 6 12 0 22 -3 22 -9 0 -5 6
-10 13 -10 7 0 24 -21 36 -47 13 -27 26 -42 28 -35 13 35 37 -11 47 -88 l5
-45 -21 55 c-23 61 -26 66 -33 58 -3 -2 1 -18 9 -34 36 -75 35 -77 -69 -102
-52 -13 -100 -20 -107 -16 -29 17 -87 78 -82 86 3 4 -1 6 -8 3 -7 -3 -26 4
-43 15 -29 19 -30 22 -41 142 l-11 123 -2 -85 c-1 -69 -4 -81 -13 -65 -6 11
-16 24 -22 28 -7 6 -4 7 7 3 9 -3 17 -2 17 2 0 4 -39 7 -88 6 -123 -3 -120 -2
-102 -14 12 -8 10 -10 -9 -8 -20 2 -27 -3 -35 -26 -8 -22 -8 -30 1 -33 8 -3 9
-10 4 -21 -34 -67 -38 -91 -33 -197 2 -41 6 -52 24 -60 24 -10 54 -62 44 -72
-8 -9 -56 37 -56 53 0 8 -6 11 -15 8 -8 -4 -15 -2 -15 4 0 5 -12 18 -27 27
-19 11 -10 -1 23 -36 48 -51 51 -56 46 -97 -3 -32 4 -65 28 -130 18 -48 40
-96 50 -107 12 -14 16 -30 13 -52 -7 -42 18 -112 66 -187 29 -45 40 -76 45
-118 3 -31 11 -67 16 -80 8 -18 9 -12 5 27 l-6 50 19 -30 c10 -16 30 -55 45
-85 37 -77 152 -251 179 -272 13 -10 40 -18 63 -18 33 0 47 -6 74 -35 23 -25
41 -35 62 -35 17 0 28 -4 25 -9 -8 -12 49 -19 109 -14 92 8 130 6 190 -6 79
-17 87 -22 98 -57 13 -43 29 -74 39 -74 5 0 4 10 -3 21 -17 33 -49 149 -40
149 4 0 14 -26 21 -57 15 -66 36 -113 50 -113 5 0 1 17 -9 38 -10 20 -21 55
-24 77 l-6 40 35 -40 c19 -22 39 -57 46 -77 6 -21 15 -38 21 -38 5 0 6 8 2 17
-55 143 -53 392 6 566 35 101 100 216 159 277 44 45 68 61 119 78 36 12 82 22
103 22 41 0 47 12 23 44 -26 34 -19 49 18 42 47 -9 228 -99 224 -111 -2 -5
-36 -14 -75 -18 -40 -5 -72 -13 -72 -18 0 -5 4 -9 9 -9 5 0 14 -14 21 -30 16
-39 10 -53 -68 -157 -33 -44 -68 -97 -76 -118 -19 -45 -19 -48 -4 -39 7 4 8 3
4 -4 -4 -6 -13 -9 -20 -6 -45 17 -117 -236 -117 -414 0 -134 -22 -122 228
-122 l216 0 -9 82 c-5 46 -9 126 -9 178 0 95 0 96 43 163 23 38 42 72 42 76 0
17 123 141 140 141 30 0 50 11 50 27 0 16 70 15 329 -3 69 -4 177 17 308 61
76 25 190 40 393 51 104 5 147 2 255 -16 273 -46 423 -95 511 -166 28 -23 59
-44 70 -48 10 -3 39 -25 64 -47 25 -23 56 -45 70 -51 14 -5 36 -24 50 -43 31
-42 46 -46 25 -5 -8 16 -15 38 -15 49 0 11 -4 30 -9 43 -5 13 -15 45 -22 71
-8 34 -16 47 -28 45 -9 -1 -22 1 -30 6 -8 5 -53 10 -102 12 -75 2 -93 7 -131
30 -23 15 -45 30 -48 35 -3 4 -16 9 -30 12 -14 2 -10 3 10 2 42 -2 120 30 120
50 0 8 -4 15 -10 15 -5 0 -28 33 -52 73 -38 65 -120 157 -140 157 -4 0 -8 3
-8 8 0 4 -7 16 -16 27 -12 17 -16 18 -24 5 -9 -15 -3 64 8 90 3 8 6 20 7 25 0
6 9 22 19 38 11 16 20 50 22 85 3 62 55 228 67 215 5 -4 5 1 1 10 -4 10 -2 28
3 40 23 49 34 80 29 84 -6 7 -44 -80 -68 -157 -11 -36 -29 -87 -40 -115 -37
-95 -68 -235 -68 -309 0 -70 18 -143 68 -273 11 -29 16 -55 12 -58 -5 -3 -58
6 -117 20 -159 38 -283 55 -416 55 -76 0 -116 4 -112 10 9 14 -9 12 -23 -2
-12 -12 -142 -29 -142 -18 1 3 26 25 55 50 56 45 75 74 30 44 -18 -12 -25 -13
-25 -3 0 15 -15 2 -15 -14 -1 -7 -6 -11 -13 -10 -7 2 -11 0 -11 -5 3 -19 -2
-23 -15 -13 -15 13 -49 4 -40 -10 3 -5 10 -9 15 -9 6 0 7 5 3 11 -4 7 -2 10 5
8 21 -7 17 -23 -9 -35 -43 -21 -101 -46 -129 -54 -14 -4 -33 -11 -42 -15 -11
-4 -18 0 -21 13 -4 14 4 27 25 43 17 12 26 24 19 27 -6 2 -27 -8 -45 -22 -19
-15 -41 -24 -50 -21 -8 4 -18 2 -22 -4 -4 -7 0 -8 11 -4 13 5 15 3 9 -7 -6
-10 -2 -11 17 -7 18 5 25 3 25 -9 0 -17 -21 -27 -76 -38 -34 -6 -34 -6 -16 14
10 11 22 17 28 13 6 -3 7 -1 3 5 -5 8 -15 8 -33 1 -14 -5 -27 -8 -27 -7 -1 2
-7 14 -13 28 l-12 25 0 -32 c-1 -17 -7 -34 -13 -37 -7 -3 -2 -3 12 0 17 4 22
3 15 -4 -5 -6 -28 -14 -51 -18 -36 -5 -42 -4 -47 15 -3 12 -11 21 -17 21 -7 0
-10 -8 -7 -20 5 -19 1 -20 -48 -18 l-52 2 23 19 c13 10 28 16 34 12 5 -3 7 0
5 7 -4 9 7 18 28 26 18 6 43 21 54 31 11 11 24 17 28 13 4 -4 0 8 -9 26 -10
19 -20 32 -23 29 -2 -3 0 -14 6 -25 9 -17 6 -21 -17 -30 -15 -6 -35 -11 -44
-11 -46 -3 -56 -6 -51 -14 3 -5 14 -6 25 -4 16 4 17 3 7 -9 -6 -8 -16 -14 -21
-14 -6 0 -22 -9 -37 -20 -39 -27 -90 -35 -97 -15 -9 24 24 54 95 87 35 16 90
47 122 69 33 22 64 37 70 33 6 -3 9 0 7 8 -4 18 45 59 157 133 154 101 189
140 316 350 64 105 114 229 140 344 16 72 49 312 48 351 -2 41 -7 11 -34 -185
-17 -120 -55 -270 -63 -246 -2 7 1 24 9 37 7 13 9 27 6 31 -4 3 -7 -1 -7 -9 0
-9 -7 -21 -15 -28 -9 -8 -15 -9 -15 -2 0 6 5 14 10 17 6 3 10 12 9 18 0 9 -2
9 -6 0 -2 -7 -14 -13 -25 -13 -11 0 -22 -8 -25 -18 -4 -17 -26 -33 -65 -48
-10 -3 -18 -10 -18 -15 0 -5 -7 -9 -15 -9 -8 0 -15 -4 -15 -9 0 -14 -70 -43
-90 -38 -11 3 -27 -1 -37 -9 -23 -17 -36 -18 -27 -1 6 9 4 9 -7 -1 -15 -14
-51 -16 -65 -3 -15 15 -149 -44 -147 -64 1 -14 -5 -16 -29 -11 -17 3 -34 6
-39 6 -4 0 -10 8 -14 19 -4 14 -15 18 -42 17 -22 -1 -38 4 -41 12 -3 11 0 12
18 2 39 -21 33 -2 -20 65 -48 61 -51 67 -37 83 12 13 16 35 15 78 -2 52 1 64
27 96 16 20 30 44 31 53 3 19 3 20 -51 -48 -37 -47 -37 -47 -25 -92 l13 -46
-57 -54 c-31 -30 -56 -61 -56 -69 0 -22 32 -79 54 -95 18 -13 18 -15 -7 -27
-28 -15 -45 -53 -29 -63 22 -14 -8 -49 -57 -66 -27 -9 -55 -23 -61 -30 -9 -11
-17 -12 -32 -4 -20 11 -20 11 -2 -15 11 -14 23 -26 27 -26 5 0 5 -5 2 -10 -3
-6 1 -10 9 -10 12 0 16 -10 16 -39 0 -37 -14 -63 -22 -42 -1 5 -16 -2 -33 -15
-25 -20 -27 -26 -15 -34 8 -5 11 -12 7 -17 -5 -4 -12 -2 -16 6 -11 18 -71 -13
-78 -40 -6 -23 -2 -23 -60 0 -26 10 -75 24 -107 32 -40 9 -60 18 -63 30 -3 10
-15 20 -26 23 -22 5 -23 8 -30 92 -1 14 -7 20 -17 16 -8 -2 5 9 30 25 25 17
66 36 93 43 26 7 47 16 47 20 0 21 143 10 204 -15 18 -8 18 -5 -4 31 -14 21
-23 39 -21 39 2 0 0 24 -4 52 -7 52 -6 54 38 103 54 60 80 113 75 151 -3 18 1
30 10 34 8 3 11 12 8 21 -3 9 -3 20 0 26 4 5 7 33 8 62 2 52 10 76 26 76 5 0
10 -15 12 -33 4 -34 4 -34 29 33 8 22 58 62 84 66 6 1 15 3 20 4 6 1 14 2 19
1 5 -1 13 4 17 11 6 9 9 10 9 1 0 -7 16 3 36 21 28 25 44 33 68 31 34 -3 65
10 83 34 7 10 8 18 1 22 -5 4 -3 9 7 12 9 4 13 3 10 -3 -3 -6 -3 -10 2 -10 4
0 18 16 31 35 17 26 19 35 8 35 -8 0 -16 6 -19 13 -2 6 -8 9 -12 5 -4 -4 -2
-14 4 -22 7 -9 8 -16 2 -20 -5 -4 -11 2 -13 11 -2 10 -12 18 -23 18 -11 0 -19
6 -17 13 3 14 -46 6 -63 -11 -7 -7 -6 -8 2 -3 9 5 11 2 7 -9 -4 -9 -9 -13 -12
-11 -3 3 -12 0 -20 -6 -8 -7 -6 3 7 25 27 48 48 127 57 210 3 37 10 67 15 67
5 0 15 12 22 28 6 15 17 32 22 38 18 19 55 26 70 14 10 -9 19 -8 37 1 27 14
48 41 42 51 -3 5 4 8 15 8 24 0 26 8 7 33 -11 14 -15 15 -20 5 -3 -7 -3 -1 0
15 7 31 8 31 -34 16 -26 -9 -35 -8 -48 6 -20 20 -38 15 -42 -12 -3 -20 -60
-89 -67 -81 -3 2 9 19 25 37 20 21 30 43 31 64 0 18 3 26 6 19 6 -16 33 3 33
24 0 8 4 14 10 14 5 0 7 7 4 15 -4 10 5 20 28 30 19 8 42 25 51 38 9 14 57 45
110 70 57 28 106 59 122 79 16 18 33 31 39 29 6 -1 31 -9 54 -16 43 -13 44
-13 26 6 -10 11 -33 29 -51 40 -23 14 -33 28 -33 45 0 13 6 24 13 24 9 0 8 3
-2 9 -9 6 -10 11 -2 15 6 4 11 5 11 2 0 -3 29 6 65 19 36 14 75 26 88 26 14 1
9 4 -13 9 -24 5 -10 7 46 6 45 -1 77 -4 72 -7 -16 -10 71 -9 98 1 28 11 31 2
9 -26 -13 -16 -14 -16 -9 -1 3 9 1 17 -5 17 -6 0 -13 -11 -17 -24 -3 -13 -38
-48 -81 -82 -113 -88 -119 -93 -105 -94 13 0 92 57 156 115 21 19 43 35 48 35
11 0 38 25 38 35 0 3 39 86 86 183 93 193 244 467 278 504 12 13 43 53 69 91
26 37 52 67 58 67 5 0 9 8 9 18 0 26 92 125 142 155 64 37 147 52 191 34 35
-15 37 -19 53 -113 7 -36 -14 -59 -23 -25 -7 26 -29 27 -36 2 -6 -26 0 -31 40
-31 30 0 33 -3 33 -30 0 -16 -4 -30 -10 -30 -5 0 -10 10 -10 23 0 18 -2 19
-10 7 -8 -13 -10 -13 -10 0 0 9 -6 5 -17 -10 -9 -14 -24 -30 -33 -37 -11 -9
-11 -12 -2 -13 7 0 23 9 35 20 12 12 23 16 25 10 2 -5 12 -10 22 -10 28 0 39
-22 31 -60 -5 -26 -13 -36 -30 -38 -19 -3 -21 -1 -13 13 6 12 5 27 -5 46 -17
35 -27 38 -19 6 3 -13 1 -36 -3 -52 -8 -25 -9 -26 -10 -7 -1 12 -6 22 -12 22
-7 0 -9 -10 -7 -25 3 -14 1 -28 -3 -31 -5 -3 -9 -9 -9 -15 0 -5 16 0 36 10 20
11 42 17 49 15 7 -3 16 0 20 6 5 8 11 8 21 -1 17 -14 19 2 2 19 -18 18 -7 21
47 11 41 -8 60 -19 110 -68 45 -44 81 -68 144 -96 47 -20 103 -50 125 -68 39
-30 40 -30 16 -3 -14 15 -70 50 -125 77 -89 44 -196 122 -183 134 2 3 20 0 39
-6 49 -15 247 -39 369 -46 123 -6 307 20 430 62 41 14 113 37 160 51 125 36
390 171 510 259 55 40 156 106 223 146 67 40 150 93 184 118 l63 46 0 63 c0
34 -4 62 -8 62 -15 0 -196 -96 -256 -136 -32 -21 -87 -57 -121 -79 -35 -22
-72 -48 -82 -57 -11 -10 -23 -18 -28 -18 -5 0 -17 -7 -27 -17 -10 -9 -21 -13
-25 -10 -6 7 11 25 82 86 l40 33 -40 -27 c-57 -40 -95 -77 -93 -89 2 -6 0 -11
-3 -11 -11 0 -104 -87 -104 -98 0 -7 -4 -12 -10 -12 -18 -1 -55 -30 -55 -43 0
-15 -48 -62 -63 -62 -5 0 -3 8 4 18 11 15 11 15 -1 4 -8 -7 -15 -18 -15 -25 0
-7 -7 -12 -15 -12 -8 0 -24 -8 -35 -18 -43 -40 -143 -86 -220 -101 -44 -10
-98 -22 -120 -28 -49 -13 -97 -13 -240 0 -167 15 -268 56 -485 197 -140 91
-182 121 -235 171 -33 31 -94 80 -136 110 -115 81 -315 293 -362 382 -21 40
-36 76 -32 81 3 6 -1 13 -9 18 -7 4 -15 17 -17 27 -3 14 -8 8 -18 -20z m-233
-281 c15 -3 19 -8 12 -13 -14 -9 -60 -1 -60 11 0 10 16 11 48 2z m138 -115
l37 -73 11 38 c6 22 15 35 20 30 5 -4 7 8 4 29 -5 44 3 41 45 -21 17 -27 62
-81 98 -122 37 -41 86 -99 110 -129 23 -30 47 -58 52 -62 6 -3 -19 -36 -55
-73 l-66 -67 -41 41 c-23 23 -41 37 -41 32 0 -5 18 -25 40 -45 22 -20 40 -42
40 -48 0 -7 -15 -26 -32 -43 l-32 -30 18 28 c13 22 15 31 6 43 -7 7 -16 12
-20 9 -4 -3 -10 5 -13 16 -4 13 -10 18 -18 13 -7 -4 -10 -3 -5 4 4 6 -4 16
-16 23 -13 7 -42 30 -65 53 -34 34 -47 58 -71 136 -17 52 -40 117 -51 143 -23
53 -27 92 -11 102 6 3 10 15 10 26 0 10 2 19 5 19 3 0 21 -33 41 -72z m-65
-91 c-10 -9 -11 -8 -6 6 4 9 3 17 -3 17 -5 0 -9 12 -9 28 l0 27 15 -33 c13
-26 13 -35 3 -45z m-418 26 c-5 -13 -3 -15 13 -9 15 6 16 4 7 -5 -6 -6 -19 -9
-28 -5 -14 5 -15 9 -5 21 16 20 21 19 13 -2z m117 1 c0 -1 -10 -9 -23 -17 -19
-12 -24 -13 -24 -2 0 8 4 12 9 9 4 -3 8 -1 8 4 0 5 7 9 15 9 8 0 15 -1 15 -3z
m571 -11 c13 -16 12 -17 -3 -4 -17 13 -22 21 -14 21 2 0 10 -8 17 -17z m-544
-8 c0 -8 -6 -15 -14 -15 -7 0 -13 -5 -13 -11 0 -5 -5 -7 -11 -3 -8 4 -4 13 12
25 13 10 24 19 25 19 0 0 1 -7 1 -15z m-177 -5 c0 -5 -7 -7 -15 -4 -8 4 -15 8
-15 10 0 2 7 4 15 4 8 0 15 -4 15 -10z m474 -26 c3 -8 2 -12 -4 -9 -6 3 -10
10 -10 16 0 14 7 11 14 -7z m-434 2 c0 -2 -7 -6 -15 -10 -8 -3 -15 -1 -15 4 0
6 7 10 15 10 8 0 15 -2 15 -4z m422 -30 c28 -29 36 -49 51 -124 18 -89 19 -90
59 -108 30 -14 45 -30 59 -62 10 -24 29 -47 44 -54 21 -9 24 -16 21 -45 -3
-19 -17 -50 -33 -70 -51 -64 -73 -97 -73 -110 0 -6 -7 -19 -16 -28 -9 -8 -60
-104 -115 -211 -90 -179 -102 -198 -143 -226 -38 -25 -50 -28 -73 -21 -37 13
-51 68 -33 127 7 22 15 54 17 71 8 50 64 207 98 275 37 76 52 126 34 114 -9
-5 -10 -2 -4 12 4 10 12 33 18 49 5 17 16 48 23 69 8 22 12 42 9 44 -11 11
-31 -20 -43 -65 -19 -68 -59 -176 -99 -261 -19 -41 -32 -76 -30 -78 2 -2 28
45 57 106 30 60 55 108 58 106 4 -5 -96 -209 -138 -281 -16 -27 -34 -72 -41
-98 -7 -32 -16 -47 -24 -43 -8 3 -11 -2 -8 -15 3 -10 -4 -33 -16 -51 -11 -18
-21 -28 -21 -23 0 6 7 21 16 33 9 13 13 26 10 29 -3 4 -6 2 -6 -4 0 -11 -63
-53 -79 -53 -5 0 -11 15 -13 33 -3 17 -9 41 -13 52 -5 11 -5 17 -1 14 11 -10
85 69 92 99 l6 27 -16 -29 c-22 -39 -84 -99 -95 -91 -12 7 3 61 33 123 13 26
26 62 30 81 3 19 19 55 35 80 16 25 32 62 36 81 11 50 37 100 52 100 9 0 11 8
7 25 -4 15 -2 25 5 25 6 0 11 7 11 15 0 8 -6 15 -12 15 -7 0 2 10 21 22 29 18
31 23 16 28 -16 5 -14 10 15 30 30 21 31 24 14 31 -17 6 -16 8 9 18 29 11 35
26 15 34 -7 2 3 12 23 22 24 11 41 29 49 51 8 19 18 34 22 34 5 0 6 5 3 10 -7
12 26 100 37 100 4 0 22 -15 40 -34z m-1655 -49 c12 -17 40 -67 62 -109 22
-43 55 -94 73 -114 46 -50 50 -60 32 -75 -13 -10 -17 -10 -25 2 -5 8 -9 11
-10 7 -1 -5 -2 -11 -3 -15 -3 -16 -18 -33 -29 -33 -6 0 -2 7 9 16 18 15 18 15
-3 9 -14 -4 -23 -2 -23 4 0 6 6 11 14 11 25 0 25 14 0 33 -27 20 -32 16 -8 -7
14 -15 14 -16 0 -16 -9 0 -17 6 -17 13 -1 6 -3 23 -4 36 -1 13 -8 27 -15 31
-7 4 -9 13 -5 20 5 9 4 11 -3 6 -7 -4 -12 -3 -12 3 0 5 -14 30 -31 55 -17 25
-32 58 -34 73 -1 16 -8 27 -13 26 -11 -3 -9 28 3 47 10 16 19 12 42 -23z
m4243 29 c0 -2 -12 -11 -27 -20 l-28 -17 24 20 c23 21 31 25 31 17z m-2912
-228 c-150 -150 -208 -205 -208 -194 0 19 317 332 327 322 2 -2 -51 -60 -119
-128z m-338 -6 c5 -13 10 -31 10 -42 0 -10 4 -21 10 -25 5 -3 7 14 3 45 -4 32
-2 50 5 50 5 0 8 -10 6 -22 -2 -13 -2 -17 2 -10 11 23 22 12 38 -35 19 -55 21
-114 4 -131 -16 -16 -29 -15 -22 2 3 8 0 24 -6 36 -10 19 -13 20 -23 6 -7 -9
-26 -18 -43 -22 -24 -5 -37 0 -60 19 -25 22 -29 32 -29 76 0 28 -3 51 -7 51
-13 0 -9 -83 5 -110 7 -14 30 -34 52 -44 l40 -20 -30 -7 c-17 -4 -51 -10 -78
-14 -30 -4 -45 -10 -41 -17 5 -7 2 -8 -7 -2 -25 15 -97 15 -103 -1 -3 -8 0
-15 6 -15 6 0 9 -2 6 -5 -3 -3 -16 -1 -29 4 -17 7 -19 10 -6 10 9 1 17 6 17
11 0 6 -15 4 -36 -5 -20 -8 -49 -15 -65 -15 -16 0 -29 -5 -29 -11 0 -5 -4 -8
-9 -4 -5 3 -36 -4 -68 -16 -32 -11 -65 -23 -73 -25 -13 -4 -13 -6 0 -14 12 -7
11 -9 -5 -10 -70 -2 -109 -10 -116 -22 -15 -21 -79 54 -79 92 0 20 5 30 15 30
9 0 19 10 24 22 7 20 8 20 19 -10 15 -44 23 -40 16 8 -4 27 -2 40 6 40 6 0 8
-4 5 -10 -3 -5 -1 -10 4 -10 13 0 13 3 5 25 -6 14 -9 14 -28 2 -11 -8 -33 -17
-48 -21 -25 -6 -28 -4 -28 17 0 13 8 31 18 39 19 17 96 38 139 38 24 0 195 55
235 75 7 4 5 0 -4 -8 -10 -8 -18 -18 -18 -23 0 -5 -26 -21 -58 -36 -31 -16
-50 -28 -41 -28 25 0 120 51 113 62 -3 5 2 8 12 6 14 -2 18 3 17 20 -2 14 3
22 13 22 9 0 12 -5 8 -12 -6 -10 -5 -10 7 -2 21 17 39 19 185 19 129 0 133 -1
144 -23z m-790 -118 c0 -8 -4 -12 -10 -9 -5 3 -10 2 -10 -4 0 -19 -41 -34 -54
-20 -8 9 -7 11 5 6 10 -3 26 4 40 19 27 28 29 29 29 8z m835 -43 c-3 -6 -16
-11 -28 -11 -21 0 -21 1 3 13 27 15 36 14 25 -2z m-915 -10 c0 -11 -51 -33
-58 -26 -4 3 4 8 16 12 12 3 22 12 22 20 0 8 5 11 10 8 6 -3 10 -10 10 -14z
m84 5 c-6 -16 -54 -51 -54 -39 0 10 42 53 51 53 5 0 6 -6 3 -14z m2275 -24
c-19 -7 -59 9 -59 23 0 12 5 12 34 -3 19 -9 30 -19 25 -20z m-2339 -21 c0 -17
-117 -50 -147 -41 l-28 8 31 1 c18 1 51 10 75 21 48 21 69 25 69 11z m-205
-21 c3 -5 1 -10 -4 -10 -6 0 -11 5 -11 10 0 6 2 10 4 10 3 0 8 -4 11 -10z
m785 -22 c10 -6 4 -8 -20 -5 -24 3 -46 -2 -70 -16 l-35 -20 30 31 c30 31 56
34 95 10z m250 -15 c-24 -21 -55 -39 -69 -40 -129 -11 -288 -18 -294 -13 -19
17 72 40 165 43 53 1 89 5 80 9 -11 4 -5 7 18 8 19 1 55 7 80 14 67 20 67 19
20 -21z m-368 4 c-12 -13 -19 -27 -15 -30 3 -4 -1 -7 -10 -7 -9 0 -15 8 -14
19 0 11 4 18 8 15 4 -2 12 3 19 11 7 8 17 15 23 15 6 0 1 -10 -11 -23z m347
-81 c21 -14 41 -23 44 -20 2 3 17 -10 31 -27 15 -18 45 -45 66 -60 34 -25 39
-34 45 -81 4 -29 5 -69 3 -88 l-4 -35 -12 29 c-7 16 -15 26 -18 23 -3 -3 1
-19 9 -36 14 -29 13 -41 -5 -41 -4 0 -8 9 -8 19 0 12 -17 32 -40 48 -22 15
-40 35 -40 43 0 9 -9 16 -20 17 -21 2 -27 -12 -10 -20 6 -3 5 -4 -2 -3 -7 2
-13 14 -13 27 -1 46 -17 119 -27 119 -9 0 -7 -23 9 -74 4 -15 1 -18 -11 -13
-9 4 -16 2 -16 -3 0 -6 -5 -10 -11 -10 -5 0 -7 5 -4 10 4 6 -13 10 -42 11 -26
0 -56 2 -66 4 -9 2 -23 -3 -30 -10 -11 -10 -13 -6 -14 22 -1 19 -7 40 -13 47
-10 8 -11 6 -5 -12 4 -13 4 -35 0 -50 -7 -25 -8 -26 -15 -7 -5 11 -9 32 -9 47
-1 15 -6 30 -11 33 -6 4 -8 -7 -4 -29 3 -20 2 -36 -3 -37 -4 0 -18 -2 -31 -5
-23 -4 -26 -1 -64 96 -6 14 -12 20 -15 13 -2 -7 5 -33 16 -59 25 -57 25 -54 1
-54 -11 0 -20 -6 -21 -12 0 -10 -2 -10 -6 0 -2 6 -12 12 -20 12 -16 0 -15 -23
2 -64 6 -13 5 -17 -3 -13 -6 4 -13 21 -17 37 -4 17 -18 51 -32 76 -21 38 -23
48 -12 55 8 5 19 9 25 9 6 0 20 11 32 25 24 27 18 29 -43 15 -22 -5 -44 -5
-48 -1 -13 13 76 31 165 32 46 1 117 5 158 9 41 4 85 7 98 8 12 1 40 -9 61
-22z m-529 -46 c-14 -11 -31 -20 -39 -20 -17 0 -10 8 21 26 35 19 46 16 18 -6z
m50 -114 c0 -16 -37 -28 -46 -15 -8 14 5 29 27 29 10 0 19 -6 19 -14z m243
-21 c4 -8 2 -17 -3 -20 -6 -4 -10 3 -10 14 0 25 6 27 13 6z m91 0 c3 -9 0 -15
-9 -15 -9 0 -12 6 -9 15 4 8 7 15 9 15 2 0 5 -7 9 -15z m-114 -16 c0 -5 -4 -9
-10 -9 -5 0 -10 7 -10 16 0 8 5 12 10 9 6 -3 10 -10 10 -16z m187 15 c-3 -3
-12 -4 -19 -1 -8 3 -5 6 6 6 11 1 17 -2 13 -5z m-180 -56 c-3 -8 -6 -5 -6 6
-1 11 2 17 5 13 3 -3 4 -12 1 -19z m48 -6 c-3 -3 -11 0 -18 7 -9 10 -8 11 6 5
10 -3 15 -9 12 -12z m183 11 c-10 -2 -26 -2 -35 0 -10 3 -2 5 17 5 19 0 27 -2
18 -5z m-114 -18 c-4 -8 -11 -12 -16 -9 -6 4 -5 10 3 15 19 12 19 11 13 -6z
m-770 -61 c3 -8 2 -12 -4 -9 -6 3 -10 10 -10 16 0 14 7 11 14 -7z m734 -33
c12 -11 22 -26 22 -35 0 -9 4 -16 10 -16 12 0 -7 52 -23 62 -7 4 34 8 89 8
108 0 138 -11 166 -63 10 -20 9 -21 -5 -9 -13 11 -15 10 -10 -7 3 -12 8 -19
12 -16 4 2 8 -18 10 -44 1 -35 -3 -52 -15 -62 -15 -13 -16 -11 -9 11 20 62 18
66 -44 66 -59 0 -96 6 -107 17 -4 4 -25 7 -47 7 -30 0 -40 -4 -44 -20 -3 -11
-10 -20 -15 -20 -5 0 -6 5 -3 10 3 6 -1 10 -9 10 -12 0 -16 10 -16 34 0 19 -4
38 -10 41 -13 8 -13 -24 1 -64 8 -23 8 -35 0 -45 -8 -9 -8 -16 -2 -20 5 -4 15
2 21 11 10 16 11 16 6 1 -3 -10 -1 -20 4 -23 5 -3 11 3 13 12 4 16 5 16 6 1 1
-20 -21 -37 -27 -20 -2 7 -8 9 -13 6 -6 -3 -22 7 -36 22 -23 25 -25 26 -19 6
16 -58 18 -67 12 -61 -16 15 -62 169 -54 181 6 11 8 10 8 0 0 -9 8 -7 27 7 16
14 33 19 46 15 13 -4 17 -2 13 5 -11 18 17 12 42 -8z m422 4 c0 -2 -7 -8 -15
-15 -12 -10 -15 -10 -15 2 0 8 7 15 15 15 8 0 15 -1 15 -2z m-610 -14 c0 -10
-54 -31 -78 -31 -21 0 -6 13 31 27 40 15 47 15 47 4z m686 -73 c4 -7 3 -8 -4
-4 -7 4 -12 2 -12 -5 0 -7 -3 -10 -6 -6 -6 5 3 27 11 27 2 0 7 -5 11 -12z
m-36 -19 c0 -6 -4 -7 -10 -4 -5 3 -10 11 -10 16 0 6 5 7 10 4 6 -3 10 -11 10
-16z m-428 -11 c-7 -7 -12 -8 -12 -2 0 6 3 14 7 17 3 4 9 5 12 2 2 -3 -1 -11
-7 -17z m-162 -3 c0 -9 -9 -15 -22 -15 -13 0 -34 -3 -47 -7 -17 -4 -22 -2 -19
8 8 25 88 38 88 14z m232 -4 c-8 -4 -19 -19 -25 -31 -7 -13 -22 -26 -34 -31
-18 -7 -21 -4 -18 17 1 14 6 28 10 32 4 4 4 -3 1 -15 -11 -35 14 -28 27 7 8
20 18 30 32 30 15 0 17 -3 7 -9z m348 -21 c0 -5 -5 -10 -11 -10 -5 0 -7 5 -4
10 3 6 8 10 11 10 2 0 4 -4 4 -10z m-333 -15 c0 -8 -6 -15 -14 -15 -17 0 -17
17 0 23 6 3 12 6 13 6 0 1 1 -6 1 -14z m53 1 c0 -2 -8 -10 -17 -17 -16 -13
-17 -12 -4 4 13 16 21 21 21 13z m27 -22 c-3 -3 -12 -4 -19 -1 -8 3 -5 6 6 6
11 1 17 -2 13 -5z m-12 -24 c-28 -12 -37 -12 -30 0 3 6 16 10 28 9 21 0 21 -1
2 -9z m442 -6 c-3 -3 -12 -4 -19 -1 -8 3 -5 6 6 6 11 1 17 -2 13 -5z m-249
-28 c-20 -6 -40 -14 -44 -18 -4 -5 -14 -8 -22 -8 -9 0 -13 3 -9 6 9 9 80 33
97 33 8 -1 -2 -6 -22 -13z m-137 -26 c28 -40 30 -63 8 -90 -20 -25 -20 -25
-14 -2 7 22 6 23 -59 16 -48 -5 -66 -4 -66 5 0 7 4 10 9 6 5 -3 12 -1 15 4 8
12 -29 20 -45 10 -10 -6 -11 -9 -1 -9 6 0 12 -7 12 -15 0 -20 -46 -20 -54 1
-3 9 -3 21 1 26 3 6 1 8 -4 5 -6 -4 -14 0 -17 9 -9 23 -8 27 10 20 8 -3 12 -2
9 4 -9 14 -31 12 -65 -5 -27 -14 -60 -12 -60 5 0 8 42 26 75 33 11 2 67 3 124
3 99 -1 105 -2 122 -26z m-1331 -10 c-6 -12 -9 -24 -7 -27 3 -2 8 5 12 16 7
23 25 29 25 8 0 -22 -30 -57 -49 -57 -10 0 -36 -19 -56 -42 -27 -30 -36 -35
-32 -20 4 12 10 32 14 44 l6 22 -30 -19 c-37 -24 -88 -70 -128 -116 -26 -30
-24 -29 15 7 69 62 112 95 117 90 3 -3 -9 -31 -25 -64 -28 -54 -29 -59 -12
-69 14 -9 18 -30 22 -105 4 -70 13 -115 37 -182 48 -134 87 -199 178 -297 l83
-89 0 -60 c0 -33 2 -60 3 -60 2 0 29 9 60 19 32 11 57 16 57 10 0 -12 -169
-179 -181 -179 -5 0 -9 15 -9 33 0 42 -15 57 -59 57 -118 0 -254 168 -312 385
-16 60 -22 112 -23 206 l-1 127 33 46 c35 48 35 66 1 66 -13 0 -18 4 -13 12 4
7 3 8 -4 4 -20 -12 -13 -26 13 -26 32 0 31 -3 -4 -48 -19 -24 -34 -59 -41 -99
-7 -36 -20 -69 -31 -79 -18 -16 -19 -15 -19 29 0 45 35 158 70 227 41 79 181
209 261 243 41 17 44 15 29 -13z m1015 -20 c7 -12 -53 -43 -71 -36 -21 8 -17
21 9 34 28 14 54 15 62 2z m100 -36 c9 -14 15 -27 13 -29 -2 -1 -13 -8 -26
-14 -19 -10 -23 -9 -34 13 -8 20 -8 29 2 41 17 21 25 19 45 -11z m185 -28 c0
-7 -11 -25 -25 -40 -24 -26 -31 -24 -19 8 3 9 10 13 16 10 5 -3 12 3 15 15 6
24 13 28 13 7z m-480 -10 c0 -2 -7 -7 -16 -10 -8 -3 -12 -2 -9 4 6 10 25 14
25 6z m240 -4 c0 -6 -31 -25 -82 -50 -5 -2 -8 1 -8 7 0 6 17 19 38 30 41 22
52 25 52 13z m185 -2 c-3 -5 -12 -10 -18 -10 -7 0 -6 4 3 10 19 12 23 12 15 0z
m105 -15 c-7 -9 -15 -13 -18 -10 -3 2 1 11 8 20 7 9 15 13 18 10 3 -2 -1 -11
-8 -20z m-110 -20 c0 -8 -2 -15 -4 -15 -2 0 -6 7 -10 15 -3 8 -1 15 4 15 6 0
10 -7 10 -15z m53 -17 c-20 -20 -21 -20 -19 -2 2 10 9 18 15 17 6 -2 11 2 11
9 0 6 3 8 7 4 4 -3 -3 -16 -14 -28z m-83 2 c0 -5 -4 -10 -10 -10 -5 0 -10 5
-10 10 0 6 5 10 10 10 6 0 10 -4 10 -10z m-1237 -20 c-3 -11 -7 -20 -9 -20 -2
0 -4 9 -4 20 0 11 4 20 9 20 5 0 7 -9 4 -20z m1170 13 c-13 -2 -23 -11 -23
-19 0 -8 -5 -14 -10 -14 -7 0 -7 6 0 20 6 12 20 19 33 19 l22 -2 -22 -4z m152
-23 c-8 -13 -72 -40 -94 -40 -29 1 20 30 50 30 15 0 31 5 34 10 3 6 8 10 11
10 3 0 2 -5 -1 -10z m-145 -65 c-18 -19 -35 -33 -37 -31 -2 2 -20 -12 -39 -31
-37 -35 -46 -36 -51 -5 -2 13 10 24 40 37 23 10 48 27 55 37 7 10 22 18 33 18
10 0 19 5 19 12 0 6 3 8 7 5 4 -4 -9 -23 -27 -42z m-162 -113 c-13 -10 -36
-18 -52 -20 -29 -2 -29 -2 -10 19 10 12 33 30 49 40 30 19 30 19 33 -2 2 -13
-5 -27 -20 -37z m-47 -115 c-28 -61 -100 -122 -166 -142 -64 -18 -78 -19 -73
-3 3 7 22 16 43 20 22 5 42 12 45 17 3 5 28 23 57 40 45 28 96 81 77 81 -4 0
1 9 11 20 27 30 29 18 6 -33z m79 -11 c0 -3 -4 -8 -10 -11 -5 -3 -10 -1 -10 4
0 6 5 11 10 11 6 0 10 -2 10 -4z m-295 -56 c-3 -5 -12 -10 -18 -10 -7 0 -6 4
3 10 19 12 23 12 15 0z m255 6 c0 -2 -7 -7 -16 -10 -8 -3 -12 -2 -9 4 6 10 25
14 25 6z m-103 -106 c6 -50 -16 -113 -55 -155 -25 -28 -96 -68 -164 -94 -52
-19 -28 -3 47 33 42 20 79 44 82 54 3 9 12 24 19 32 15 18 21 80 10 98 -4 7
-1 15 8 18 8 3 19 19 25 36 14 38 22 31 28 -22z m53 5 c-7 -9 -15 -13 -17 -11
-6 6 20 36 26 30 2 -2 -2 -10 -9 -19z m-1295 -95 c-3 -5 1 -21 10 -34 11 -16
14 -33 10 -47 -5 -14 -4 -19 4 -15 7 5 11 -3 11 -21 0 -15 5 -44 11 -63 5 -19
21 -80 35 -135 13 -55 28 -113 33 -130 5 -16 12 -41 16 -55 7 -24 7 -24 -9 -5
-14 19 -15 16 -16 -42 0 -66 12 -86 32 -53 7 11 17 20 21 20 16 0 87 55 87 68
0 18 17 15 24 -5 4 -10 4 -14 0 -11 -7 8 -34 -15 -34 -29 0 -4 -16 -19 -35
-32 -35 -24 -103 -101 -89 -101 3 0 -6 -10 -22 -22 -62 -48 -80 -65 -131 -115
-29 -29 -56 -66 -60 -83 -8 -30 -10 -31 -23 -14 -9 10 -10 15 -3 10 9 -5 11
-2 7 8 -3 9 -10 14 -14 11 -13 -8 -22 27 -10 39 8 8 10 7 5 -5 -4 -10 0 -16 9
-16 8 0 18 7 20 14 3 8 1 11 -4 8 -17 -11 -10 9 13 35 34 38 92 80 111 80 10
0 20 9 23 20 3 10 13 22 23 25 10 3 21 13 24 23 3 9 9 24 12 32 4 8 -8 1 -25
-17 -21 -21 -38 -29 -51 -26 -11 3 -20 1 -20 -4 0 -5 -21 -20 -46 -32 -25 -13
-65 -43 -89 -67 l-42 -44 -69 35 c-74 38 -133 83 -134 102 0 7 16 20 36 29 20
9 40 27 46 38 5 12 29 35 53 51 25 17 45 35 45 42 0 7 7 10 15 7 8 -4 15 -1
15 4 0 23 -21 22 -53 -2 -35 -27 -53 -33 -42 -16 3 6 1 10 -4 10 -6 0 -11 -6
-11 -14 0 -8 -21 -24 -47 -37 -27 -12 -60 -35 -75 -51 l-28 -28 -23 38 c-13
20 -35 60 -50 89 l-27 52 23 21 c12 12 22 25 22 30 0 5 34 35 75 66 104 80
117 94 85 94 -8 0 -15 -5 -15 -11 0 -5 -4 -8 -8 -5 -5 3 -26 -7 -47 -21 -21
-14 -34 -20 -30 -13 9 15 -1 10 -50 -24 -16 -12 -40 -22 -51 -23 -38 -3 -16
31 43 67 30 19 67 51 81 72 15 24 31 37 39 34 8 -3 12 -2 9 3 -6 10 76 81 93
81 6 0 11 5 11 11 0 6 7 8 16 5 8 -3 12 -2 9 4 -3 6 1 10 10 10 9 0 13 4 10
10 -3 5 7 12 22 16 15 3 37 9 48 12 11 3 26 7 33 8 7 1 27 11 45 22 34 21 72
29 62 12z m1250 -39 c-3 -17 -18 -47 -31 -67 -26 -38 -25 -62 1 -28 18 23 19
14 3 -23 -20 -46 -83 -136 -137 -195 -50 -55 -151 -118 -189 -118 -12 0 -24
-5 -27 -10 -9 -14 -63 -36 -107 -43 -41 -6 -53 7 -15 17 12 3 31 13 42 22 19
15 19 16 2 29 -18 13 -17 14 3 20 12 4 19 12 17 18 -2 7 14 16 37 22 25 6 45
18 51 31 17 35 36 54 54 54 10 0 26 6 37 14 15 12 16 17 7 27 -10 10 -4 16 30
28 47 18 127 63 127 72 0 3 -15 4 -32 2 -30 -4 -31 -3 -13 8 33 20 123 116
130 139 10 31 18 17 10 -19z m-1870 -219 c-7 -8 -35 7 -35 18 0 6 7 6 20 -2
10 -7 17 -14 15 -16z m1905 18 c0 -5 -4 -10 -10 -10 -5 0 -10 5 -10 10 0 6 5
10 10 10 6 0 10 -4 10 -10z m40 -4 c0 -3 -4 -8 -10 -11 -5 -3 -10 -1 -10 4 0
6 5 11 10 11 6 0 10 -2 10 -4z m-50 -35 c0 -5 -9 -7 -20 -4 -11 3 -20 7 -20 9
0 2 9 4 20 4 11 0 20 -4 20 -9z m4 -36 c-4 -8 -11 -15 -16 -15 -6 0 -5 6 2 15
7 8 14 15 16 15 2 0 1 -7 -2 -15z m-47 -11 c-3 -3 -12 -4 -19 -1 -8 3 -5 6 6
6 11 1 17 -2 13 -5z m-389 -237 c20 -31 27 -87 11 -87 -4 0 -10 -14 -14 -30
-4 -17 -18 -38 -32 -48 -14 -9 -35 -26 -46 -37 -12 -11 -31 -25 -41 -30 -11
-6 -24 -25 -30 -42 -9 -32 -26 -43 -73 -49 -15 -1 -23 3 -23 12 0 9 -4 13 -9
9 -6 -3 17 52 50 122 73 156 75 159 88 156 6 -2 8 3 5 11 -8 21 27 41 76 45 8
0 25 -14 38 -32z m-128 18 c0 -2 -13 -26 -28 -52 -15 -26 -34 -64 -42 -83 -53
-138 -190 -358 -213 -343 -6 3 -7 1 -3 -5 3 -6 -3 -17 -14 -25 -12 -8 -46 -38
-77 -67 -31 -29 -53 -44 -48 -34 10 24 24 126 18 137 -2 4 -10 1 -18 -5 -32
-32 -57 -49 -62 -44 -3 3 10 18 28 33 19 15 44 38 56 50 16 15 23 18 23 8 0
-8 -4 -17 -10 -20 -14 -9 -12 -25 3 -24 6 0 22 13 35 29 18 23 20 33 12 55
-13 33 -13 35 3 35 7 0 18 9 25 20 10 17 10 20 -5 20 -14 0 -11 5 10 18 28 19
27 35 -1 25 -12 -4 -10 2 7 20 14 15 19 27 13 27 -9 0 -6 12 6 38 11 20 22 50
26 65 5 21 18 34 49 47 23 11 56 32 72 48 25 25 39 30 83 31 28 1 52 -1 52 -4z
m-1226 -40 c18 -23 22 -35 13 -35 -7 0 -21 16 -30 35 -9 19 -15 35 -13 35 2 0
16 -16 30 -35z m-419 -15 c-3 -5 0 -10 7 -11 9 0 9 -2 -2 -6 -24 -10 -37 -27
-33 -43 2 -9 -4 -24 -15 -33 -15 -14 -19 -14 -19 -3 0 8 5 14 11 13 5 -1 12 6
14 16 2 11 -3 17 -15 17 -14 1 -12 4 8 15 15 8 29 21 33 30 3 8 8 15 11 15 4
0 3 -4 0 -10z m290 -40 c15 -30 13 -50 -5 -50 -6 0 -17 16 -25 36 -18 45 -18
44 0 44 8 0 22 -14 30 -30z m-145 -43 c0 -15 -2 -16 -14 -5 -8 8 -10 15 -4 19
7 4 7 9 0 13 -6 4 -15 -2 -21 -11 -14 -25 -14 -10 1 22 l12 26 13 -23 c7 -13
12 -31 13 -41z m329 20 c8 -10 7 -14 -2 -14 -8 0 -14 6 -14 14 0 7 1 13 2 13
2 0 8 -6 14 -13z m-268 -53 c7 -39 4 -54 -9 -54 -11 0 -33 80 -26 91 12 20 29
2 35 -37z m-211 32 c0 -2 -8 -10 -17 -17 -16 -13 -17 -12 -4 4 13 16 21 21 21
13z m1801 -37 c-5 -13 -10 -19 -10 -12 -1 15 10 45 15 40 3 -2 0 -15 -5 -28z
m-1481 17 c0 -2 -7 -7 -16 -10 -8 -3 -12 -2 -9 4 6 10 25 14 25 6z m-615 -16
c3 -6 -1 -7 -9 -4 -18 7 -21 14 -7 14 6 0 13 -4 16 -10z m1245 6 c0 -3 -4 -8
-10 -11 -5 -3 -10 -1 -10 4 0 6 5 11 10 11 6 0 10 -2 10 -4z m-1165 -29 c0
-17 -37 -44 -65 -49 -17 -2 -26 -10 -28 -25 -2 -13 1 -23 7 -23 6 0 11 5 11
10 0 6 19 10 43 9 45 -1 44 -2 -19 -18 -45 -12 -137 -69 -129 -80 2 -5 -2 -17
-11 -27 -14 -18 -15 -18 -8 6 3 14 10 29 15 35 5 5 9 20 9 33 0 13 4 21 10 17
5 -3 6 -13 3 -23 -3 -9 -2 -14 2 -9 5 4 8 30 6 57 -2 43 2 54 24 74 21 20 34
23 76 20 37 -2 48 0 43 9 -4 7 -3 8 2 4 5 -5 9 -14 9 -20z m745 3 c0 -5 -2
-10 -4 -10 -3 0 -8 5 -11 10 -3 6 -1 10 4 10 6 0 11 -4 11 -10z m370 2 c0 -8
-53 -42 -65 -42 -8 0 15 21 40 37 25 15 25 15 25 5z m-1272 -16 c-7 -8 -15
-12 -17 -11 -5 6 10 25 20 25 5 0 4 -6 -3 -14z m192 -28 c0 -11 -8 -18 -19
-18 -24 0 -36 16 -20 26 8 4 9 3 5 -4 -4 -7 -1 -12 9 -12 12 0 14 7 9 28 -4
21 -3 24 5 12 6 -8 11 -23 11 -32z m1925 22 c-3 -5 -12 -10 -18 -10 -7 0 -6 4
3 10 19 12 23 12 15 0z m-915 -40 c0 -5 -5 -10 -11 -10 -5 0 -7 5 -4 10 3 6 8
10 11 10 2 0 4 -4 4 -10z m-430 -21 c0 -6 -4 -7 -10 -4 -5 3 -10 11 -10 16 0
6 5 7 10 4 6 -3 10 -11 10 -16z m1584 -31 c16 -11 -6 -10 -23 1 -8 5 -10 14
-5 22 6 10 9 10 12 -1 3 -8 10 -18 16 -22z m723 -60 c-8 -20 -29 -55 -46 -78
-48 -67 -73 -72 -286 -65 -99 3 -177 4 -174 1 3 -3 31 -14 63 -24 31 -10 58
-22 59 -28 1 -5 6 -8 11 -6 5 2 6 -5 2 -14 -3 -9 -3 -22 2 -28 4 -6 13 -23 20
-38 11 -26 9 -29 -38 -63 -28 -20 -50 -44 -50 -52 0 -19 -147 -163 -166 -163
-19 0 -91 49 -123 84 -14 14 -29 26 -35 26 -6 1 -27 14 -46 31 l-35 30 -7 -23
c-5 -14 -5 -7 -2 17 3 25 1 35 -4 27 -6 -9 -9 6 -8 42 0 31 4 56 8 56 4 0 8 5
8 10 0 19 38 52 51 45 7 -5 10 -4 6 2 -7 12 63 53 89 53 28 0 96 41 90 55 -6
16 28 40 66 47 14 3 66 2 115 -2 93 -8 124 -2 159 31 27 26 152 53 170 38 8
-6 19 -7 26 -2 15 9 81 31 86 27 2 -1 -3 -17 -11 -36z m-367 22 c0 -5 -2 -10
-4 -10 -3 0 -8 5 -11 10 -3 6 -1 10 4 10 6 0 11 -4 11 -10z m-2620 -51 c0 -21
-25 -19 -47 4 -35 34 -21 54 18 25 16 -12 29 -25 29 -29z m246 -1 l29 -33 -32
29 c-31 28 -38 36 -30 36 2 0 16 -15 33 -32z m2294 22 c0 -5 -2 -10 -4 -10 -3
0 -8 5 -11 10 -3 6 -1 10 4 10 6 0 11 -4 11 -10z m-170 -10 c0 -5 -2 -10 -4
-10 -3 0 -8 5 -11 10 -3 6 -1 10 4 10 6 0 11 -4 11 -10z m-543 -24 c50 -14 74
-33 52 -40 -66 -20 -114 -27 -144 -22 -19 4 -35 9 -35 12 0 2 10 20 23 39 17
27 27 34 42 29 11 -3 39 -11 62 -18z m459 -1 c18 -14 18 -15 -6 -6 -14 4 -32
6 -40 4 -13 -4 -13 -3 0 6 20 14 23 14 46 -4z m-2279 -20 c0 -8 -4 -12 -9 -9
-5 3 -6 10 -3 15 9 13 12 11 12 -6z m503 -15 c-8 -5 -19 -10 -25 -10 -5 0 -3
5 5 10 8 5 20 10 25 10 6 0 3 -5 -5 -10z m1729 -46 c-6 -8 -8 -14 -3 -14 8 0
-67 -49 -107 -70 -20 -10 -22 -10 -11 1 18 20 15 28 -10 22 -13 -3 -20 -3 -17
0 3 4 14 8 25 10 10 1 25 6 32 10 6 5 16 6 22 2 5 -3 21 4 35 17 18 15 23 28
19 42 -6 18 -5 19 10 7 12 -10 14 -17 5 -27z m-444 -14 c-3 -5 -14 -10 -23 -9
-14 0 -13 2 3 9 27 11 27 11 20 0z m-285 -25 c0 -8 -2 -15 -4 -15 -2 0 -6 7
-10 15 -3 8 -1 15 4 15 6 0 10 -7 10 -15z m-61 -4 c10 -7 10 -10 1 -16 -7 -4
-16 -1 -21 6 -6 10 -9 8 -9 -8 0 -14 -6 -23 -15 -23 -14 0 -13 3 1 25 18 27
22 29 43 16z m646 -41 c3 -5 2 -10 -4 -10 -5 0 -13 5 -16 10 -3 6 -2 10 4 10
5 0 13 -4 16 -10z m-742 -34 c-25 -21 -26 -25 -13 -42 14 -17 13 -18 -1 -7 -9
7 -19 10 -23 6 -4 -4 -4 0 0 10 7 18 -11 24 -19 7 -3 -6 -4 -5 -3 2 2 7 9 13
17 13 8 0 20 8 27 18 7 9 20 17 28 17 10 0 5 -8 -13 -24z m210 -78 c7 -48 7
-48 -23 -48 -23 0 -30 4 -30 20 0 11 -6 20 -14 20 -15 0 -29 -27 -21 -40 2 -4
-7 -7 -20 -7 -19 0 -25 5 -24 21 0 19 1 19 8 3 7 -20 15 -15 36 22 6 11 4 13
-10 7 -16 -6 -16 -4 -4 10 8 10 15 12 17 5 6 -17 22 -13 22 5 0 9 10 27 22 40
27 27 31 21 41 -58z m1107 78 c0 -2 3 -11 6 -20 3 -9 1 -16 -5 -16 -6 0 -11 6
-11 14 0 8 -6 17 -12 19 -8 3 -6 6 5 6 9 1 17 -1 17 -3z m-2000 -31 c7 -9 8
-15 2 -15 -5 0 -12 7 -16 15 -3 8 -4 15 -2 15 2 0 9 -7 16 -15z m770 5 c0 -6
-11 -15 -24 -20 -13 -5 -27 -14 -31 -19 -3 -6 -12 -11 -18 -11 -16 1 34 39 51
40 7 0 10 5 7 10 -3 6 -1 10 4 10 6 0 11 -5 11 -10z m2190 -5 c0 -8 -4 -15
-10 -15 -5 0 -7 7 -4 15 4 8 8 15 10 15 2 0 4 -7 4 -15z m-2305 -30 c6 -1 9
-7 7 -14 -1 -7 3 -20 10 -29 9 -11 9 -14 1 -9 -7 4 -22 22 -35 39 -12 17 -15
27 -7 22 7 -5 19 -9 24 -9z m333 -10 c-3 -3 -9 2 -12 12 -6 14 -5 15 5 6 7 -7
10 -15 7 -18z m1072 11 c0 -3 -4 -8 -10 -11 -5 -3 -10 -1 -10 4 0 6 5 11 10
11 6 0 10 -2 10 -4z m-2801 -90 c-1 -15 -28 46 -28 64 0 8 6 0 14 -19 8 -18
15 -38 14 -45z m2168 22 c-3 -8 -6 -5 -6 6 -1 11 2 17 5 13 3 -3 4 -12 1 -19z
m-698 -19 c-25 -16 -32 -9 -13 12 12 13 20 16 22 9 3 -7 -2 -16 -9 -21z m1227
19 c4 -7 4 -10 -1 -6 -4 4 -15 2 -24 -5 -14 -11 -14 -10 -2 6 16 20 18 21 27
5z m-834 -48 c43 -10 92 -27 110 -36 86 -44 230 -161 173 -140 -11 4 -41 10
-67 13 -37 4 -48 10 -48 24 0 18 -54 69 -74 69 -6 0 -28 8 -48 19 -21 10 -81
24 -135 31 -54 6 -107 17 -118 23 -11 6 -38 14 -60 19 -23 4 8 5 75 2 65 -2
148 -13 192 -24z m189 -3 c-10 -9 -11 -8 -5 6 3 10 9 15 12 12 3 -3 0 -11 -7
-18z m-2018 -32 c9 -25 14 -45 12 -45 -8 0 -35 59 -35 75 0 26 8 17 23 -30z
m2115 26 c-12 -19 -28 -19 -28 0 0 6 5 7 10 4 6 -3 10 -1 10 4 0 6 5 11 10 11
6 0 5 -8 -2 -19z m-108 -21 c-13 -8 -12 -10 4 -10 11 0 17 -3 13 -6 -3 -4 -13
-4 -22 0 -18 6 -11 26 8 26 7 0 6 -4 -3 -10z m37 -42 c-3 -8 -6 -5 -6 6 -1 11
2 17 5 13 3 -3 4 -12 1 -19z m1610 -4 c7 -20 -12 -41 -22 -23 -5 8 -4 10 3 5
7 -4 12 -1 12 8 0 8 -6 17 -12 19 -10 4 -10 6 0 6 7 1 15 -6 19 -15z m43 -28
c0 -3 -4 -8 -10 -11 -5 -3 -10 -1 -10 4 0 6 5 11 10 11 6 0 10 -2 10 -4z m-25
-26 c3 -6 -1 -7 -9 -4 -18 7 -21 14 -7 14 6 0 13 -4 16 -10z m-3621 -110 c7
-20 6 -22 -4 -13 -7 6 -14 33 -16 60 -3 42 -2 44 5 13 4 -19 11 -46 15 -60z
m3649 73 c-3 -7 -6 -13 -8 -13 -2 0 -5 6 -8 13 -3 8 1 14 8 14 7 0 11 -6 8
-14z m57 -8 c19 -22 8 -25 -12 -3 -10 10 -14 18 -9 18 5 0 14 -7 21 -15z
m-1697 -12 c-13 -2 -33 -2 -45 0 -13 2 -3 4 22 4 25 0 35 -2 23 -4z m1672 -13
c16 -17 16 -20 3 -15 -9 4 -19 13 -22 21 -7 19 -2 18 19 -6z m-1608 4 c12 -3
24 -13 28 -21 4 -12 2 -13 -8 -5 -7 6 -24 16 -38 21 -27 11 -16 14 18 5z m-23
-20 c25 -9 84 -99 91 -137 6 -33 5 -35 -14 -30 -12 3 -21 10 -21 15 0 5 -21
18 -47 30 -63 28 -131 20 -190 -22 l-42 -31 2 61 c2 68 11 82 73 104 40 15
121 20 148 10z m-959 -13 c3 -5 1 -12 -5 -16 -5 -3 -10 1 -10 9 0 18 6 21 15
7z m2679 -81 c-7 -6 -24 22 -23 40 0 9 6 5 14 -10 7 -14 11 -27 9 -30z m-2721
-5 c-3 -9 -8 -14 -10 -11 -3 3 -2 9 2 15 9 16 15 13 8 -4z m2682 6 c3 -5 1
-12 -5 -16 -5 -3 -10 1 -10 9 0 18 6 21 15 7z m-28 -43 c-3 -7 -5 -2 -5 12 0
14 2 19 5 13 2 -7 2 -19 0 -25z m-2632 2 c3 -5 1 -10 -4 -10 -6 0 -11 5 -11
10 0 6 2 10 4 10 3 0 8 -4 11 -10z m1001 -15 c18 -14 18 -14 -11 -15 -23 0
-26 3 -15 10 11 7 7 10 -18 10 -30 0 -125 -45 -165 -78 -30 -26 -27 -9 5 27
49 55 159 80 204 46z m1929 -134 c3 -5 1 -12 -5 -16 -5 -3 -10 1 -10 9 0 18 6
21 15 7z m40 -61 c4 -6 -1 -7 -12 -3 -15 5 -16 3 -5 -8 20 -22 14 -34 -8 -14
-16 14 -17 20 -8 27 17 10 26 10 33 -2z m-3797 -83 l23 -42 -30 35 c-31 35
-38 50 -23 50 4 0 17 -19 30 -43z m111 -137 c6 0 35 -16 64 -35 28 -19 48 -35
44 -35 -22 0 -144 72 -156 92 l-14 23 25 -22 c13 -13 30 -23 37 -23z m181
-100 c8 -5 11 -10 5 -10 -5 0 -17 5 -25 10 -8 5 -10 10 -5 10 6 0 17 -5 25
-10z m358 -20 c17 -16 32 -34 32 -40 0 -17 -52 -11 -100 11 -41 19 -43 22 -24
29 12 5 25 13 29 19 10 18 28 12 63 -19z m-208 -24 c0 -2 -11 -6 -25 -8 -14
-3 -25 -1 -25 3 0 5 11 9 25 9 14 0 25 -2 25 -4z"/>
<path d="M3970 4261 c0 -6 4 -13 10 -16 6 -3 7 1 4 9 -7 18 -14 21 -14 7z"/>
<path d="M3766 3623 c-6 -14 -5 -15 5 -6 7 7 10 15 7 18 -3 3 -9 -2 -12 -12z"/>
<path d="M2107 4316 c-3 -8 -2 -18 3 -21 13 -8 24 15 12 27 -6 6 -11 4 -15 -6z"/>
<path d="M2850 4098 c0 -18 18 -34 28 -24 3 4 -2 14 -11 23 -16 16 -17 16 -17
1z"/>
<path d="M2822 4050 c0 -14 3 -34 8 -45 l9 -20 -1 20 c0 11 -4 31 -8 45 l-8
25 0 -25z"/>
<path d="M2881 4018 c9 -33 29 -61 29 -41 0 20 -22 73 -30 73 -5 0 -4 -14 1
-32z"/>
<path d="M2530 4011 c0 -6 5 -13 10 -16 6 -3 10 1 10 9 0 9 -4 16 -10 16 -5 0
-10 -4 -10 -9z"/>
<path d="M2487 4003 c-4 -3 -7 -14 -7 -24 0 -26 22 -76 27 -62 2 7 -1 22 -7
34 -7 12 -8 24 -4 28 12 8 16 31 6 31 -5 0 -12 -3 -15 -7z"/>
<path d="M2563 3945 c6 -19 14 -35 19 -35 10 0 10 1 -3 39 -15 43 -30 40 -16
-4z"/>
<path d="M2886 3944 c-4 -10 -1 -14 6 -12 15 5 23 28 10 28 -5 0 -13 -7 -16
-16z"/>
<path d="M2786 3941 c-3 -5 1 -14 9 -21 12 -10 15 -10 15 3 0 19 -16 31 -24
18z"/>
<path d="M2587 3893 c-11 -10 -8 -43 3 -43 6 0 10 11 10 25 0 26 -2 29 -13 18z"/>
<path d="M2457 3853 c-4 -6 7 -22 24 -37 23 -21 37 -26 55 -22 14 4 22 11 19
17 -5 6 -12 6 -21 -2 -12 -10 -20 -6 -43 21 -16 19 -30 29 -34 23z"/>
<path d="M2748 3733 c7 -3 16 -2 19 1 4 3 -2 6 -13 5 -11 0 -14 -3 -6 -6z"/>
<path d="M2821 3724 c0 -11 3 -14 6 -6 3 7 2 16 -1 19 -3 4 -6 -2 -5 -13z"/>
<path d="M2868 3711 c9 -16 18 -28 20 -27 5 6 -21 56 -29 56 -5 0 0 -13 9 -29z"/>
<path d="M2938 3733 c7 -3 16 -2 19 1 4 3 -2 6 -13 5 -11 0 -14 -3 -6 -6z"/>
<path d="M3090 3720 c0 -11 2 -20 4 -20 2 0 6 9 9 20 3 11 1 20 -4 20 -5 0 -9
-9 -9 -20z"/>
<path d="M3176 3620 c8 -56 14 -64 14 -19 0 19 -5 41 -10 49 -7 10 -8 1 -4
-30z"/>
<path d="M2900 3401 c0 -7 10 -25 21 -39 l21 -27 -7 25 c-9 30 -35 61 -35 41z"/>
<path d="M3140 3378 c0 -13 5 -30 10 -38 7 -11 9 -5 8 23 -1 39 -18 53 -18 15z"/>
<path d="M2985 3151 c11 -12 21 -18 23 -12 2 5 11 7 20 4 9 -3 14 -3 11 1 -4
4 -16 8 -28 11 -11 2 -27 7 -34 11 -6 4 -3 -3 8 -15z"/>
<path d="M3068 3143 c7 -3 16 -2 19 1 4 3 -2 6 -13 5 -11 0 -14 -3 -6 -6z"/>
<path d="M3142 3130 c7 -11 17 -20 22 -20 5 0 1 9 -9 20 -10 11 -20 20 -22 20
-2 0 2 -9 9 -20z"/>
<path d="M1630 2814 c-51 -35 -80 -68 -80 -93 0 -24 2 -23 48 22 26 26 53 47
60 47 30 0 7 -43 -50 -94 -49 -45 -59 -59 -49 -69 9 -9 25 2 77 55 60 62 65
70 62 105 -4 44 -28 54 -68 27z"/>
<path d="M1629 2623 c-51 -49 -76 -93 -51 -93 14 0 143 136 136 143 -14 14
-26 6 -85 -50z"/>
<path d="M1654 2538 c-44 -42 -64 -69 -64 -85 0 -32 6 -29 84 40 47 42 66 65
66 83 0 13 -5 24 -11 24 -6 0 -40 -28 -75 -62z"/>
<path d="M1685 2460 c-12 -14 -16 -28 -12 -49 8 -37 -8 -49 -33 -26 -18 16
-20 16 -26 1 -8 -20 12 -46 35 -46 12 0 16 -10 16 -41 0 -51 25 -74 51 -47 15
15 15 16 -5 23 -23 7 -28 34 -10 52 9 9 17 8 34 -3 45 -29 87 16 61 66 -8 17
-10 32 -5 36 5 3 9 12 9 21 0 11 -6 14 -24 9 -16 -4 -26 -1 -30 9 -8 21 -40
19 -61 -5z m40 -40 c0 -7 -6 -15 -12 -17 -8 -3 -13 4 -13 17 0 13 5 20 13 18
6 -3 12 -11 12 -18z m45 -56 c0 -17 -26 -19 -36 -3 -7 12 15 31 28 23 4 -3 8
-12 8 -20z"/>
<path d="M1806 2309 c-58 -51 -78 -88 -70 -128 8 -38 33 -60 75 -67 27 -4 46
2 89 28 53 32 92 79 77 94 -3 4 -27 -12 -52 -35 -51 -47 -89 -65 -111 -53 -12
7 -2 21 46 66 42 38 60 62 56 72 -5 13 -16 8 -55 -25 -26 -22 -54 -47 -61 -56
-16 -19 -30 -19 -30 0 0 8 23 38 50 67 46 48 62 78 41 78 -4 0 -29 -19 -55
-41z"/>
<path d="M2665 1360 c3 -5 8 -10 11 -10 2 0 4 5 4 10 0 6 -5 10 -11 10 -5 0
-7 -4 -4 -10z"/>
<path d="M2405 1320 c-3 -6 1 -7 9 -4 18 7 21 14 7 14 -6 0 -13 -4 -16 -10z"/>
<path d="M1776 1201 c-4 -5 -2 -20 3 -33 7 -16 10 -18 10 -6 1 9 6 18 13 20 6
2 8 10 4 16 -9 14 -23 16 -30 3z"/>
<path d="M3112 4900 c0 -14 2 -19 5 -12 2 6 2 18 0 25 -3 6 -5 1 -5 -13z"/>
<path d="M5800 4901 c0 -6 4 -13 10 -16 6 -3 7 1 4 9 -7 18 -14 21 -14 7z"/>
<path d="M2340 4847 c0 -31 3 -58 8 -60 9 -6 8 100 -1 110 -4 3 -7 -19 -7 -50z"/>
<path d="M4265 4845 c17 -8 37 -14 45 -14 8 0 -1 7 -20 14 -46 18 -64 17 -25
0z"/>
<path d="M5867 4849 c7 -7 15 -10 18 -7 3 3 -2 9 -12 12 -14 6 -15 5 -6 -5z"/>
<path d="M2682 4820 c0 -19 2 -27 5 -17 2 9 2 25 0 35 -3 9 -5 1 -5 -18z"/>
<path d="M4340 4828 c0 -5 28 -7 63 -7 67 1 60 6 -15 11 -27 2 -48 0 -48 -4z"/>
<path d="M5920 4825 c14 -8 30 -14 35 -14 6 0 -1 6 -15 14 -14 8 -29 14 -35
14 -5 0 1 -6 15 -14z"/>
<path d="M4520 4820 l-45 -7 40 0 c22 0 54 3 70 7 26 7 27 8 5 7 -14 0 -45 -3
-70 -7z"/>
<path d="M2322 4780 c0 -14 2 -19 5 -12 2 6 2 18 0 25 -3 6 -5 1 -5 -13z"/>
<path d="M2246 4754 c-9 -24 -8 -25 13 -12 11 7 17 16 15 20 -8 13 -21 9 -28
-8z"/>
<path d="M2356 4733 c8 -52 -2 -93 -21 -93 -8 0 -15 -6 -15 -12 0 -7 -3 -23
-6 -34 -5 -18 -1 -21 21 -21 36 0 39 -7 18 -39 -10 -16 -12 -25 -5 -21 6 5 12
4 12 0 0 -5 10 -14 21 -22 20 -12 21 -11 15 6 -5 11 6 5 28 -16 20 -19 39 -32
42 -28 9 9 -65 117 -80 117 -19 0 -51 51 -38 59 5 3 15 25 21 48 10 35 9 48
-4 70 l-15 28 6 -42z"/>
<path d="M2438 4759 c-26 -14 -11 -49 21 -49 15 0 36 -7 47 -16 18 -14 18 -15
-4 -4 -29 14 -41 6 -14 -9 23 -12 36 -91 16 -91 -21 0 -26 -49 -7 -80 22 -38
44 -38 66 0 14 23 25 30 50 30 36 0 51 8 60 32 6 17 -20 48 -42 48 -7 0 -9 5
-6 10 3 6 -6 15 -22 21 -19 7 -29 7 -31 0 -6 -18 -22 -12 -22 7 0 10 -22 38
-48 64 -36 35 -51 44 -64 37z m32 -19 c0 -5 -7 -10 -16 -10 -8 0 -12 5 -9 10
3 6 10 10 16 10 5 0 9 -4 9 -10z"/>
<path d="M2333 4705 c0 -27 2 -38 4 -22 2 15 2 37 0 50 -2 12 -4 0 -4 -28z"/>
<path d="M2065 4730 c3 -5 14 -10 23 -10 15 0 15 2 2 10 -20 13 -33 13 -25 0z"/>
<path d="M2640 4712 c-21 -17 -21 -19 -5 -35 19 -19 35 -22 35 -6 0 6 7 3 16
-5 8 -9 20 -16 25 -16 9 0 4 54 -7 72 -9 14 -41 9 -64 -10z m48 -14 c8 -10 3
-13 -19 -14 -26 -1 -27 0 -11 12 9 7 18 14 18 14 1 0 6 -6 12 -12z"/>
<path d="M2296 4687 c3 -10 9 -15 12 -12 3 3 0 11 -7 18 -10 9 -11 8 -5 -6z"/>
<path d="M3190 4658 c0 -10 68 -41 79 -36 4 2 -12 12 -36 24 -24 12 -43 17
-43 12z"/>
<path d="M6560 4603 c-170 -90 -300 -164 -300 -170 0 -3 17 5 38 17 20 13 114
63 207 113 94 49 172 91 174 93 16 15 -29 -5 -119 -53z"/>
<path d="M1991 4630 c0 -8 4 -22 9 -30 12 -18 12 -2 0 25 -6 13 -9 15 -9 5z"/>
<path d="M2716 4604 c-10 -25 -7 -34 9 -28 17 7 20 30 6 38 -5 3 -12 -1 -15
-10z"/>
<path d="M2020 4536 c0 -8 4 -17 9 -20 5 -4 7 3 4 14 -6 23 -13 26 -13 6z"/>
<path d="M2450 4516 c0 -9 5 -16 10 -16 6 0 10 4 10 9 0 6 -4 13 -10 16 -5 3
-10 -1 -10 -9z"/>
<path d="M2320 4500 c0 -12 41 -40 59 -40 11 0 11 4 -3 19 -19 21 -56 34 -56
21z"/>
<path d="M3525 4370 c-3 -5 3 -10 15 -10 12 0 18 5 15 10 -3 6 -10 10 -15 10
-5 0 -12 -4 -15 -10z"/>
<path d="M2760 4363 c-36 -6 -127 -40 -154 -58 -13 -9 -47 -18 -75 -22 -28 -3
-51 -9 -51 -14 0 -4 -18 -26 -40 -48 -22 -22 -40 -48 -40 -58 0 -12 8 -5 25
19 19 29 37 41 77 53 28 8 57 15 64 15 7 0 59 19 116 42 97 39 108 41 201 41
53 -1 97 2 97 7 0 4 -37 11 -82 15 -46 3 -90 8 -98 9 -8 2 -26 1 -40 -1z"/>
<path d="M2031 4176 c12 -20 25 -39 30 -42 5 -3 0 11 -12 30 -12 20 -25 39
-30 42 -5 3 0 -11 12 -30z"/>
<path d="M4445 4180 c3 -5 8 -10 11 -10 2 0 4 5 4 10 0 6 -5 10 -11 10 -5 0
-7 -4 -4 -10z"/>
<path d="M4407 4162 c-22 -24 -22 -38 0 -21 11 10 14 10 9 2 -8 -15 6 -15 44
-3 14 4 19 8 11 9 -8 1 -22 8 -31 16 -15 14 -18 13 -33 -3z"/>
<path d="M4360 4156 c0 -8 -3 -21 -6 -30 -4 -11 -1 -16 10 -16 18 0 23 45 6
55 -5 3 -10 0 -10 -9z"/>
<path d="M4320 4109 c0 -5 5 -7 10 -4 6 3 10 8 10 11 0 2 -4 4 -10 4 -5 0 -10
-5 -10 -11z"/>
<path d="M2325 4079 c17 -20 33 -34 38 -32 11 6 1 19 -36 45 l-32 22 30 -35z"/>
<path d="M4252 4091 c7 -11 17 -17 22 -14 6 4 5 8 -2 11 -7 2 -10 8 -6 13 3 5
-2 9 -10 9 -13 0 -14 -3 -4 -19z"/>
<path d="M4384 4049 c-1 -28 1 -30 28 -24 18 4 35 2 45 -7 14 -11 16 -11 12 1
-3 8 -14 19 -25 25 -10 6 -23 17 -27 24 -14 22 -32 13 -33 -19z"/>
<path d="M4270 4060 c-8 -5 -12 -11 -9 -14 2 -3 11 -1 19 4 8 5 12 11 9 14 -2
3 -11 1 -19 -4z"/>
<path d="M4340 4051 c0 -6 4 -13 10 -16 6 -3 7 1 4 9 -7 18 -14 21 -14 7z"/>
<path d="M4195 4040 c3 -5 11 -10 16 -10 6 0 7 5 4 10 -3 6 -11 10 -16 10 -6
0 -7 -4 -4 -10z"/>
<path d="M4228 4023 c-23 -27 -30 -43 -20 -43 11 0 46 50 39 56 -2 2 -11 -4
-19 -13z"/>
<path d="M4335 4000 c-21 -23 -8 -27 20 -7 11 8 14 16 8 20 -6 4 -18 -2 -28
-13z"/>
<path d="M4271 3984 c0 -11 3 -14 6 -6 3 7 2 16 -1 19 -3 4 -6 -2 -5 -13z"/>
<path d="M4385 3970 c0 -16 5 -28 10 -27 6 2 10 14 10 27 0 13 -4 25 -10 27
-5 2 -10 -10 -10 -27z"/>
<path d="M4290 3950 c-8 -5 -12 -12 -9 -15 4 -3 12 1 19 10 14 17 11 19 -10 5z"/>
<path d="M4139 3921 c-14 -14 -36 -42 -50 -61 -13 -19 -32 -44 -42 -55 -21
-22 -50 -75 -45 -80 2 -2 15 13 28 33 32 48 78 107 113 144 15 17 27 34 27 39
0 12 -1 11 -31 -20z"/>
<path d="M4353 3905 c-19 -15 -34 -21 -38 -15 -11 18 -20 10 -20 -19 0 -19 4
-27 13 -23 7 2 10 12 7 20 -3 9 -3 13 1 10 8 -9 56 15 73 36 20 24 0 19 -36
-9z"/>
<path d="M4203 3859 c-29 -33 -53 -65 -53 -70 0 -10 112 106 118 122 10 25
-19 2 -65 -52z"/>
<path d="M4388 3835 c-10 -13 -18 -30 -18 -37 0 -16 -39 -53 -72 -71 -16 -8
-23 -18 -19 -28 5 -12 23 1 79 55 62 62 70 74 60 88 -12 15 -15 15 -30 -7z"/>
<path d="M4025 3830 c4 -6 11 -8 16 -5 14 9 11 15 -7 15 -8 0 -12 -5 -9 -10z"/>
<path d="M4340 3811 c0 -6 5 -13 10 -16 6 -3 10 1 10 9 0 9 -4 16 -10 16 -5 0
-10 -4 -10 -9z"/>
<path d="M4240 3779 c0 -5 5 -7 10 -4 6 3 10 8 10 11 0 2 -4 4 -10 4 -5 0 -10
-5 -10 -11z"/>
<path d="M4625 3783 c-11 -3 -29 -12 -40 -20 -19 -14 -19 -15 4 -8 68 20 98
43 36 28z"/>
<path d="M4120 3758 c-12 -22 -12 -22 6 -6 10 10 15 20 12 24 -4 3 -12 -5 -18
-18z"/>
<path d="M4614 3751 c-78 -20 -104 -32 -125 -57 -9 -12 0 -9 31 9 25 14 75 32
113 39 37 7 67 16 67 20 0 10 -1 10 -86 -11z"/>
<path d="M3950 3722 c0 -5 7 -16 16 -23 14 -12 16 -11 13 5 -4 20 -29 35 -29
18z"/>
<path d="M4067 3721 c4 -3 10 -10 14 -14 3 -4 11 -2 18 6 9 12 7 15 -14 15
-14 0 -22 -3 -18 -7z"/>
<path d="M4060 3670 c-9 -17 -14 -19 -26 -9 -18 15 -18 2 0 -16 12 -12 16 -11
31 11 9 14 14 28 12 31 -3 2 -11 -5 -17 -17z"/>
<path d="M4214 3634 c3 -9 6 -21 6 -27 1 -12 30 21 30 33 0 3 -9 6 -21 7 -15
1 -19 -2 -15 -13z"/>
<path d="M3909 3623 c7 -13 1 -33 -20 -75 -16 -32 -26 -58 -21 -58 4 0 22 29
39 64 23 47 29 66 20 75 -17 17 -29 13 -18 -6z"/>
<path d="M4000 3631 c0 -5 5 -13 10 -16 6 -3 10 -2 10 4 0 5 -4 13 -10 16 -5
3 -10 2 -10 -4z"/>
<path d="M4992 3603 c12 -15 47 -17 67 -4 9 6 -1 10 -32 12 -35 3 -43 1 -35
-8z"/>
<path d="M4090 3590 c0 -5 9 -10 21 -10 11 0 17 5 14 10 -3 6 -13 10 -21 10
-8 0 -14 -4 -14 -10z"/>
<path d="M4895 3580 c-22 -11 -32 -18 -22 -15 11 3 30 8 43 11 13 3 24 10 24
15 0 11 2 12 -45 -11z"/>
<path d="M4725 3550 c-3 -6 1 -7 9 -4 18 7 21 14 7 14 -6 0 -13 -4 -16 -10z"/>
<path d="M4780 3540 c0 -5 -12 -10 -27 -10 -16 0 -35 -5 -43 -11 -13 -9 -13
-11 0 -17 10 -3 -1 -10 -30 -19 l-45 -13 46 5 c47 4 138 31 152 45 5 4 -3 5
-17 3 -21 -4 -25 -2 -20 11 3 9 1 16 -5 16 -6 0 -11 -4 -11 -10z m-15 -30
c-27 -12 -43 -12 -25 0 8 5 22 9 30 9 10 0 8 -3 -5 -9z"/>
<path d="M3973 3496 c-12 -25 -36 -64 -52 -86 -16 -22 -35 -63 -42 -90 -9 -34
-16 -46 -22 -38 -5 8 -6 5 -2 -9 3 -12 0 -27 -8 -34 -8 -8 -12 -22 -9 -33 3
-13 1 -17 -6 -12 -7 4 -12 1 -12 -8 0 -9 4 -16 8 -16 10 0 72 131 72 152 0 24
27 83 45 98 22 19 57 88 53 107 -2 9 -13 -5 -25 -31z"/>
<path d="M5268 3521 c23 -23 31 -41 10 -23 -19 14 -82 27 -74 14 3 -6 20 -13
36 -17 17 -4 28 -11 24 -16 -3 -5 -10 -7 -15 -4 -5 4 -9 1 -9 -5 0 -6 10 -8
25 -4 15 4 32 1 40 -6 12 -10 15 -9 15 4 0 9 -5 16 -12 16 -6 0 -9 2 -7 5 3 2
19 0 35 -6 23 -9 37 -8 64 4 l35 16 -45 -6 c-37 -4 -55 0 -95 22 -43 24 -47
24 -27 6z"/>
<path d="M5065 3520 c-16 -7 -13 -9 17 -9 20 -1 40 -5 43 -11 3 -5 12 -10 18
-10 7 0 6 4 -3 10 -13 9 -13 10 0 11 19 1 -18 18 -40 18 -8 0 -24 -4 -35 -9z"/>
<path d="M5640 3526 c0 -2 14 -6 30 -8 17 -3 30 -1 30 4 0 4 -13 8 -30 8 -16
0 -30 -2 -30 -4z"/>
<path d="M4051 3503 c-1 -17 16 -25 25 -12 4 7 3 9 -4 5 -5 -3 -13 0 -15 6 -4
9 -6 10 -6 1z"/>
<path d="M5960 3499 c-14 -5 -51 -14 -83 -20 -32 -6 -57 -13 -54 -15 2 -2 39
2 83 10 43 7 81 10 82 5 5 -13 52 -11 52 2 0 6 -9 8 -20 4 -14 -5 -20 -2 -20
9 0 18 -3 18 -40 5z"/>
<path d="M4160 3491 c0 -6 5 -13 10 -16 6 -3 10 1 10 9 0 9 -4 16 -10 16 -5 0
-10 -4 -10 -9z"/>
<path d="M5063 3476 c2 -6 15 -12 28 -12 13 -1 31 -5 40 -9 19 -7 35 10 18 20
-18 12 -90 12 -86 1z"/>
<path d="M5460 3486 c0 -10 28 -13 41 -5 10 6 7 9 -13 9 -16 0 -28 -2 -28 -4z"/>
<path d="M3846 3465 c-9 -26 -7 -32 5 -12 6 10 9 21 6 23 -2 3 -7 -2 -11 -11z"/>
<path d="M5616 3454 c-46 -24 -52 -25 -88 -13 -32 10 -46 10 -71 0 -75 -30
-100 -34 -109 -17 -10 18 -38 22 -38 5 0 -5 4 -8 9 -4 5 3 12 1 16 -5 4 -6 -5
-10 -19 -10 -21 0 -26 5 -26 25 0 14 -4 25 -9 25 -5 0 -7 -9 -4 -20 6 -23 -25
-40 -37 -20 -5 7 -9 8 -11 2 -3 -7 -19 -7 -49 -2 -75 15 -132 11 -205 -15 -38
-14 -71 -25 -72 -25 -2 0 -3 -7 -3 -15 0 -8 -8 -15 -17 -15 -15 0 -16 -2 -3
-10 10 -6 11 -10 3 -10 -18 0 -27 -48 -13 -65 10 -13 8 -15 -13 -15 -14 0 -39
-11 -55 -25 -17 -14 -36 -25 -44 -25 -8 0 -19 -5 -25 -11 -9 -9 -18 -5 -36 15
-25 27 -50 35 -42 14 3 -7 -5 -18 -17 -24 -13 -6 -47 -23 -75 -38 -29 -14 -64
-26 -77 -26 -27 0 -111 -33 -120 -48 -3 -5 -6 -35 -7 -67 -2 -51 1 -61 23 -80
19 -17 27 -34 30 -70 2 -35 1 -43 -7 -30 -21 36 -47 65 -58 65 -6 0 2 -13 18
-30 17 -17 23 -30 15 -30 -9 0 -8 -6 5 -20 18 -20 18 -21 -1 -14 -18 6 -18 6
1 -9 17 -14 18 -18 5 -27 -8 -5 -19 -11 -25 -14 -6 -2 -6 -8 2 -16 14 -15 6
-40 -10 -36 -7 1 -9 1 -4 -1 4 -3 4 -9 1 -15 -3 -5 3 -4 15 4 27 16 42 1 30
-30 l-9 -24 -39 31 c-21 17 -53 45 -71 61 -18 16 -36 27 -41 24 -17 -10 -9
-98 13 -152 17 -41 20 -57 11 -71 -7 -10 -8 -23 -3 -32 5 -8 4 -19 -2 -26 -12
-15 -38 -17 -38 -3 0 6 -9 10 -19 10 -11 0 -22 8 -24 18 -4 15 -5 15 -6 -1 -1
-24 -20 -18 -40 14 l-15 24 24 -20 c14 -11 19 -13 13 -5 -7 8 -13 31 -13 52 0
21 -4 38 -9 38 -11 0 -22 -93 -11 -103 4 -5 7 -25 5 -45 -1 -21 0 -25 2 -9 5
29 14 33 42 17 14 -7 17 -18 14 -47 -3 -29 1 -44 16 -62 27 -31 26 -35 -4 -15
-14 9 -25 12 -25 8 0 -5 8 -14 18 -21 12 -7 19 -24 20 -43 0 -17 6 -38 12 -45
7 -8 8 -20 4 -26 -4 -8 -3 -9 4 -5 19 12 14 -33 -5 -52 -10 -9 -17 -15 -16
-14 3 7 -31 42 -40 42 -5 0 -3 -7 4 -17 13 -15 12 -15 -7 -3 -13 8 -29 10 -40
6 -17 -7 -17 -9 -2 -15 15 -5 15 -8 2 -25 -13 -18 -19 -15 -15 8 1 5 -5 4 -13
-4 -18 -14 -22 -25 -6 -15 6 3 10 -5 10 -19 0 -14 5 -28 11 -32 8 -4 9 1 4 16
-5 15 -4 20 4 16 6 -4 11 -13 11 -20 0 -8 6 -19 14 -25 14 -12 16 -35 3 -47
-4 -4 -7 -2 -7 4 0 7 -5 12 -10 12 -6 0 -10 -6 -9 -12 3 -19 -12 -68 -21 -68
-9 0 -20 25 -20 48 -1 20 -59 87 -68 78 -3 -4 0 -12 6 -18 15 -15 15 -29 1
-26 -6 2 -13 -3 -14 -10 -2 -7 -1 -8 2 -2 3 7 10 4 19 -7 13 -17 14 -17 8 2
-6 20 -5 20 10 1 18 -23 20 -36 6 -36 -17 0 -11 -20 14 -45 l24 -24 -24 -76
c-31 -97 -44 -156 -34 -150 4 3 18 38 30 77 26 87 121 276 152 305 13 11 43
32 68 46 l45 26 40 -79 c22 -44 46 -79 53 -80 7 0 24 11 37 24 13 13 39 27 57
31 62 14 67 20 53 62 -10 28 -18 37 -32 35 -14 -2 -15 -1 -4 7 11 7 10 13 -8
32 -11 12 -21 34 -21 48 -1 21 -14 34 -63 65 -102 65 -107 71 -107 137 0 83
12 109 50 109 36 0 64 13 95 44 20 20 21 25 10 62 -7 21 -21 57 -30 79 -14 32
-19 36 -24 22 -6 -16 -9 -15 -31 10 -14 15 -17 21 -8 14 16 -12 18 -10 14 18
-4 35 -3 35 25 20 15 -8 18 -14 9 -23 -8 -10 -6 -15 8 -18 17 -5 18 -1 11 44
-5 28 -13 56 -19 63 -8 10 1 15 42 25 29 7 84 30 121 53 l69 40 48 -17 c48
-17 88 -15 101 6 3 5 21 10 40 11 25 2 34 7 34 20 0 10 6 21 12 25 9 6 10 17
4 39 -11 37 -3 83 13 83 7 0 23 11 36 25 l24 26 8 -22 c6 -16 13 -20 31 -14
61 18 96 25 139 25 41 0 52 -5 74 -30 26 -29 27 -29 130 -27 l104 2 0 28 c0
24 3 27 35 27 39 0 56 -14 103 -82 19 -27 46 -51 71 -63 28 -12 49 -32 67 -62
20 -35 29 -43 45 -38 13 4 30 -2 50 -19 41 -35 47 -33 43 12 -6 68 9 71 65 15
28 -28 51 -56 51 -62 0 -6 7 -11 15 -11 8 0 19 -17 25 -42 16 -63 18 -68 30
-68 6 0 9 3 7 8 -3 4 -1 16 3 27 6 18 8 17 23 -10 8 -17 30 -43 47 -60 48 -44
58 -78 65 -216 4 -68 12 -140 17 -159 6 -19 14 -84 18 -145 7 -98 8 -93 5 55
-2 91 -8 190 -13 220 -13 69 -21 170 -13 170 6 0 65 -149 93 -235 19 -59 17
-390 -4 -470 -17 -65 -19 -63 -38 35 -11 64 -31 108 -22 52 2 -19 -7 -51 -27
-91 -17 -35 -27 -69 -24 -78 4 -11 3 -14 -5 -9 -8 5 -12 0 -12 -13 0 -12 -5
-21 -11 -21 -5 0 -7 -4 -4 -10 3 -5 2 -10 -4 -10 -6 0 -14 -12 -17 -26 -4 -17
-11 -23 -21 -20 -8 4 -26 -2 -39 -13 -13 -10 -41 -22 -61 -26 -70 -13 -253
-94 -253 -112 0 -6 -6 -13 -12 -16 -25 -9 6 -38 66 -62 84 -34 88 -41 46 -77
-19 -16 -51 -41 -72 -54 -20 -12 -47 -34 -60 -47 -27 -27 -78 -141 -78 -174 0
-12 -4 -25 -10 -28 -5 -3 -10 -33 -10 -65 0 -62 -12 -104 -35 -130 -50 -53
-76 -91 -69 -101 4 -7 2 -10 -7 -7 -8 3 -21 -1 -30 -9 -25 -21 -85 -27 -128
-13 -35 11 -41 10 -97 -21 -90 -51 -155 -122 -177 -194 -30 -96 -78 -196 -120
-247 -22 -27 -35 -53 -31 -59 4 -7 7 -25 6 -41 0 -15 4 -26 9 -23 5 4 5 -5 -1
-20 -18 -46 -11 -51 16 -11 21 31 24 40 13 48 -11 7 -9 8 6 6 16 -2 28 13 59
72 21 41 50 95 64 120 15 25 25 51 24 57 -2 7 4 26 13 42 19 38 20 61 0 35 -8
-10 -15 -14 -15 -8 0 18 31 87 36 81 3 -3 18 -1 32 3 15 5 72 21 127 38 55 16
114 36 132 45 28 15 32 15 37 1 9 -23 7 -31 -3 -16 -7 12 -17 -7 -25 -48 -1
-3 -5 -11 -10 -18 -4 -7 -5 -16 -2 -19 3 -3 1 -15 -5 -26 -9 -15 -8 -18 3 -12
7 3 3 -2 -9 -13 -13 -11 -23 -23 -23 -27 0 -3 -17 -27 -39 -53 -21 -26 -46
-62 -55 -80 -9 -18 -21 -30 -26 -27 -5 3 -26 -12 -47 -35 -21 -22 -44 -40 -50
-40 -7 0 -13 -5 -13 -11 0 -5 -4 -8 -9 -5 -10 7 -33 -18 -26 -27 3 -4 2 -5 -1
-2 -11 8 -44 -36 -44 -59 0 -17 -2 -18 -10 -6 -7 11 -10 3 -10 -28 0 -40 -24
-96 -66 -157 -21 -30 -17 -35 24 -35 36 0 38 2 69 68 17 38 34 90 38 118 7 45
15 56 99 139 107 105 182 187 183 198 1 12 44 57 92 95 22 18 44 44 47 58 5
20 9 23 16 12 6 -9 7 -6 3 9 -4 16 7 40 43 90 27 37 54 83 60 100 6 18 21 44
34 57 30 33 44 50 45 56 0 3 10 37 21 75 12 39 32 108 45 155 22 80 27 87 73
122 26 20 52 46 56 58 14 38 17 20 3 -22 -7 -24 -27 -90 -45 -147 -17 -58 -48
-139 -67 -180 -38 -82 -147 -262 -198 -326 -18 -22 -49 -65 -69 -95 -34 -51
-80 -114 -109 -150 -7 -8 -23 -31 -36 -50 -14 -19 -33 -43 -43 -53 -10 -10
-43 -53 -72 -95 -30 -42 -70 -99 -90 -127 -73 -102 -107 -157 -101 -163 4 -4
12 1 19 12 6 10 32 46 57 80 25 33 74 104 109 156 35 52 76 109 91 125 15 17
73 93 128 170 150 210 139 198 165 182 19 -13 21 -12 23 11 0 14 -2 21 -5 16
-7 -9 -32 -17 -32 -10 0 4 48 87 70 121 61 93 78 124 73 129 -4 3 -1 6 6 6 7
0 15 -9 18 -20 6 -24 1 -24 51 0 50 24 52 24 52 2 0 -9 9 -35 21 -56 11 -21
15 -35 8 -31 -6 4 -20 26 -30 49 -18 39 -19 40 -19 12 0 -22 13 -41 53 -80 30
-28 61 -57 70 -64 24 -18 21 4 -2 25 -11 9 -17 21 -14 26 3 6 2 8 -3 5 -8 -5
-42 22 -37 29 1 2 -6 22 -16 46 -20 47 -18 102 5 93 8 -3 15 8 19 32 12 69 43
144 70 169 15 15 24 31 21 40 -15 39 -17 65 -6 78 10 12 15 12 36 -1 13 -9 31
-14 39 -11 8 4 30 0 49 -8 30 -13 36 -13 46 0 7 8 18 15 24 15 19 0 58 58 45
66 -6 3 -8 16 -6 28 3 11 2 39 -3 61 -7 33 -8 28 -6 -31 2 -40 -2 -77 -8 -85
-17 -22 -67 -51 -74 -44 -4 3 -2 9 4 13 21 13 39 57 40 97 0 22 1 74 2 114 2
77 17 89 25 21 2 -19 2 -12 0 15 -9 107 -9 109 12 113 11 2 27 10 35 17 8 7
27 15 43 19 30 7 37 36 12 56 -9 7 -15 29 -15 50 0 21 -9 59 -20 85 -26 60
-27 147 -2 172 33 34 56 64 47 61 -6 -2 -10 2 -10 7 0 6 7 9 16 8 19 -3 79 50
79 70 0 8 -10 22 -22 33 -23 19 -23 19 -6 -1 9 -11 17 -24 17 -30 0 -15 -41
-55 -56 -55 -17 0 -16 10 2 34 21 28 19 38 -20 83 -34 40 -45 73 -25 73 6 0
10 -4 10 -8 0 -5 7 -17 16 -28 14 -18 14 -18 3 6 -6 14 -18 33 -27 43 -9 10
-11 17 -4 17 6 0 9 6 6 13 -8 21 14 67 32 67 18 0 37 17 124 106 13 14 37 28
52 31 25 5 47 37 35 50 -3 2 -8 -5 -12 -16 -3 -12 -14 -21 -23 -21 -9 0 -26
-7 -36 -15 -11 -8 -27 -15 -35 -15 -9 0 1 11 22 25 20 14 37 32 37 39 0 7 9
21 20 31 28 26 22 57 -14 66 -15 4 -35 17 -42 28 -10 14 -32 22 -72 27 -31 4
-61 7 -66 6 -5 -2 -6 4 -3 12 5 12 1 13 -15 7 -38 -14 -158 75 -158 118 0 13
-10 35 -22 48 l-22 23 25 18 c36 25 44 21 41 -21 -3 -33 2 -43 36 -77 22 -23
54 -43 72 -46 24 -5 30 -11 27 -25 -3 -11 0 -16 8 -13 7 3 16 1 20 -5 3 -6 14
-11 23 -10 13 0 12 3 -5 11 -12 6 -23 19 -26 29 -3 11 -14 19 -25 19 -21 0
-89 43 -109 69 -24 30 -11 64 29 83 26 12 40 27 44 45 4 16 17 38 29 50 16 16
20 31 17 53 -2 17 2 38 9 48 10 13 8 12 -9 -3 -17 -14 -22 -26 -17 -43 4 -16
0 -31 -10 -42 -9 -10 -24 -34 -33 -52 -14 -27 -24 -33 -52 -36 l-35 -2 42 37
c26 24 45 52 52 77 5 21 19 48 29 60 11 12 22 37 25 56 3 19 3 29 0 23 -2 -7
-15 -13 -28 -13 -12 0 -37 -6 -55 -14 -28 -11 -41 -11 -92 2 -46 12 -75 13
-124 5 -35 -5 -70 -6 -76 -2 -15 10 -6 13 83 28 82 14 126 14 134 1 3 -5 23
-9 43 -9 26 1 30 3 12 6 -14 2 -35 9 -47 15 -20 10 -63 8 -175 -8 -26 -3 -58
-4 -72 0 -22 5 -26 12 -26 41 0 20 -5 36 -12 37 -36 5 -64 2 -71 -7 -6 -6 -10
-6 -14 2 -3 10 -8 9 -19 -2 -9 -8 -31 -14 -52 -13 -20 0 -55 -5 -76 -13 -31
-11 -40 -11 -43 -1 -3 6 -8 10 -13 7 -5 -3 -12 5 -16 17 -6 21 -21 37 -34 38
-3 0 -27 -12 -54 -26z m940 -850 c-3 -9 -6 -18 -6 -20 0 -2 -4 -4 -9 -4 -5 0
-7 9 -4 20 3 11 10 20 15 20 6 0 7 -7 4 -16z m-2006 -514 c0 -5 -5 -10 -11
-10 -5 0 -7 5 -4 10 3 6 8 10 11 10 2 0 4 -4 4 -10z m-73 -6 c-3 -3 -12 -4
-19 -1 -8 3 -5 6 6 6 11 1 17 -2 13 -5z m28 -4 c3 -5 1 -10 -4 -10 -6 0 -11 5
-11 10 0 6 2 10 4 10 3 0 8 -4 11 -10z m-108 -22 c-3 -8 -6 -5 -6 6 -1 11 2
17 5 13 3 -3 4 -12 1 -19z m33 -58 c0 -5 -2 -10 -4 -10 -3 0 -8 5 -11 10 -3 6
-1 10 4 10 6 0 11 -4 11 -10z m1831 -37 c-12 -20 -14 -14 -5 12 4 9 9 14 11
11 3 -2 0 -13 -6 -23z m142 -31 c10 -23 17 -60 17 -81 0 -22 6 -44 15 -51 17
-14 21 -35 4 -24 -6 3 -14 2 -18 -3 -3 -6 -17 -13 -31 -17 -17 -5 -21 -4 -12
2 19 13 19 48 -4 197 -7 48 6 38 29 -23z m-533 -296 c0 -7 -61 -36 -74 -36
-15 0 45 38 62 39 6 1 12 -1 12 -3z m260 -79 c0 -2 -10 -12 -22 -23 l-23 -19
19 23 c18 21 26 27 26 19z m-186 -108 c-9 -15 -20 -10 -20 10 0 15 3 17 13 9
7 -6 10 -14 7 -19z m17 -22 c-17 -18 -23 -19 -33 -8 -10 10 -10 12 -1 7 7 -4
18 2 25 13 6 11 16 17 21 14 5 -3 0 -15 -12 -26z m155 -133 c6 -31 3 -40 -15
-53 -12 -9 -27 -34 -33 -56 -7 -26 -13 -34 -16 -22 -2 9 6 44 17 77 12 33 21
67 21 75 0 30 19 14 26 -21z m-336 16 c0 -5 -4 -10 -10 -10 -5 0 -10 5 -10 10
0 6 5 10 10 10 6 0 10 -4 10 -10z m-64 -96 c-4 -14 -9 -24 -12 -21 -3 2 -2 17
2 31 3 15 9 25 11 22 3 -3 2 -17 -1 -32z m-16 -49 c0 -8 -2 -15 -4 -15 -2 0
-6 7 -10 15 -3 8 -1 15 4 15 6 0 10 -7 10 -15z m-13 -97 c-3 -8 -6 -5 -6 6 -1
11 2 17 5 13 3 -3 4 -12 1 -19z m239 -39 c3 -6 15 -9 25 -6 23 6 26 -8 3 -17
-38 -15 -74 0 -59 24 8 13 22 13 31 -1z m-319 -176 c-3 -10 -5 -2 -5 17 0 19
2 27 5 18 2 -10 2 -26 0 -35z m30 0 c-3 -10 -5 -2 -5 17 0 19 2 27 5 18 2 -10
2 -26 0 -35z m-55 -45 c-7 -7 -12 -8 -12 -2 0 14 12 26 19 19 2 -3 -1 -11 -7
-17z m48 13 c0 -5 -7 -11 -14 -14 -10 -4 -13 -1 -9 9 6 15 23 19 23 5z m-110
-115 c0 -3 -4 -8 -10 -11 -5 -3 -10 -1 -10 4 0 6 5 11 10 11 6 0 10 -2 10 -4z
m11 -33 c-12 -20 -14 -14 -5 12 4 9 9 14 11 11 3 -2 0 -13 -6 -23z m-21 -33
c0 -5 -5 -10 -11 -10 -5 0 -7 5 -4 10 3 6 8 10 11 10 2 0 4 -4 4 -10z m-469
-253 c-10 -9 -11 -8 -5 6 3 10 9 15 12 12 3 -3 0 -11 -7 -18z m-5 -66 c-9 -10
-16 -23 -16 -29 0 -7 -5 -12 -10 -12 -6 0 0 18 12 40 13 22 25 35 27 29 1 -6
-4 -18 -13 -28z"/>
<path d="M5730 3460 c-11 -7 -5 -8 20 -4 43 8 51 14 19 14 -13 0 -31 -5 -39
-10z"/>
<path d="M4145 3430 c4 -11 -1 -34 -9 -51 -9 -17 -13 -36 -9 -42 3 -6 12 10
19 34 17 54 17 79 3 79 -6 0 -8 -9 -4 -20z"/>
<path d="M6042 3420 c0 -14 2 -19 5 -12 2 6 2 18 0 25 -3 6 -5 1 -5 -13z"/>
<path d="M1838 3354 c-2 -42 0 -78 5 -81 4 -2 7 32 7 76 0 45 -2 81 -4 81 -3
0 -6 -34 -8 -76z"/>
<path d="M3816 3413 c-6 -14 -5 -15 5 -6 7 7 10 15 7 18 -3 3 -9 -2 -12 -12z"/>
<path d="M1295 3383 c-27 -40 -32 -77 -14 -89 9 -5 10 1 5 20 -5 20 -1 37 14
62 24 37 40 44 41 17 0 -14 2 -15 6 -3 3 8 11 18 17 22 6 4 -1 8 -16 8 -20 0
-34 -10 -53 -37z"/>
<path d="M4898 3403 c7 -3 16 -2 19 1 4 3 -2 6 -13 5 -11 0 -14 -3 -6 -6z"/>
<path d="M1370 3384 c0 -10 5 -26 10 -34 8 -11 9 -7 4 15 -8 37 -14 45 -14 19z"/>
<path d="M4410 3368 c-25 -18 -51 -39 -58 -48 -9 -10 -11 -10 -6 -1 4 9 3 12
-4 7 -6 -4 -9 -12 -6 -19 6 -17 -79 -163 -94 -160 -7 2 -9 -4 -5 -14 5 -12 2
-15 -10 -10 -11 4 -14 2 -10 -9 3 -7 1 -14 -4 -14 -5 0 -10 -11 -11 -25 -1
-14 0 -25 3 -25 10 0 96 131 135 205 33 65 49 83 78 97 21 10 46 24 57 32 20
15 20 15 0 15 -11 0 -40 -14 -65 -31z"/>
<path d="M6400 3384 c-28 -10 -31 -13 -12 -13 13 -1 32 4 42 9 16 9 22 5 34
-17 17 -32 21 -26 6 11 -11 29 -19 30 -70 10z"/>
<path d="M4005 3335 c-9 -31 -15 -59 -12 -61 3 -3 13 20 22 51 10 30 15 58 12
61 -3 4 -13 -19 -22 -51z"/>
<path d="M3781 3333 c-26 -71 -25 -69 -10 -55 15 14 41 92 30 92 -4 0 -13 -17
-20 -37z"/>
<path d="M4740 3330 c-9 -6 -10 -10 -3 -10 6 0 15 5 18 10 8 12 4 12 -15 0z"/>
<path d="M1367 3306 c10 -13 19 -23 21 -21 5 5 -22 45 -31 45 -4 0 0 -11 10
-24z"/>
<path d="M1570 3323 c0 -5 13 -22 29 -37 24 -23 33 -26 48 -17 16 9 15 10 -9
11 -17 0 -34 10 -47 26 -12 15 -21 22 -21 17z"/>
<path d="M1542 3290 c0 -14 2 -19 5 -12 2 6 2 18 0 25 -3 6 -5 1 -5 -13z"/>
<path d="M4730 3302 c0 -5 -26 -8 -57 -8 -39 1 -58 -3 -59 -11 -1 -7 -2 -17
-3 -22 0 -5 -12 -12 -26 -15 -14 -4 -25 -11 -25 -17 0 -16 42 0 72 28 20 19
33 24 52 19 15 -4 26 -2 26 3 0 6 6 8 13 5 7 -2 21 2 32 10 20 15 20 15 -2 16
-13 0 -23 -4 -23 -8z"/>
<path d="M4305 3291 c-3 -5 -1 -12 5 -16 5 -3 10 1 10 9 0 18 -6 21 -15 7z"/>
<path d="M1340 3275 c7 -8 17 -12 22 -9 6 4 5 10 -3 15 -22 14 -33 10 -19 -6z"/>
<path d="M1290 3271 c0 -6 4 -13 10 -16 6 -3 7 1 4 9 -7 18 -14 21 -14 7z"/>
<path d="M4085 3268 c4 -10 3 -18 -2 -18 -5 0 -9 -9 -9 -20 0 -27 5 -25 17 7
7 18 6 30 -1 37 -8 8 -9 6 -5 -6z"/>
<path d="M4800 3276 c0 -2 9 -6 20 -9 11 -3 18 -1 14 4 -5 9 -34 13 -34 5z"/>
<path d="M1232 3250 c0 -14 2 -19 5 -12 2 6 2 18 0 25 -3 6 -5 1 -5 -13z"/>
<path d="M1513 3243 c9 -2 23 -2 30 0 6 3 -1 5 -18 5 -16 0 -22 -2 -12 -5z"/>
<path d="M1573 3233 c9 -2 23 -2 30 0 6 3 -1 5 -18 5 -16 0 -22 -2 -12 -5z"/>
<path d="M1300 3222 c0 -4 10 -18 23 -32 12 -14 18 -19 12 -12 -8 12 -5 14 15
7 l25 -7 -22 19 c-13 11 -21 22 -18 24 2 3 -5 5 -15 6 -11 1 -20 -1 -20 -5z"/>
<path d="M3946 3214 c-4 -10 -1 -14 6 -12 15 5 23 28 10 28 -5 0 -13 -7 -16
-16z"/>
<path d="M4487 3220 c-21 -4 -43 -13 -50 -19 -9 -10 -4 -11 28 -5 46 8 85 21
85 29 0 6 -12 5 -63 -5z"/>
<path d="M1241 3211 c-1 -7 13 -30 29 -51 27 -35 33 -38 59 -30 16 4 32 6 35
4 3 -2 4 -1 0 3 -3 4 -20 6 -38 5 -32 -3 -54 16 -78 68 -5 11 -7 12 -7 1z"/>
<path d="M4250 3211 c0 -6 4 -13 10 -16 6 -3 7 1 4 9 -7 18 -14 21 -14 7z"/>
<path d="M4053 3183 c-3 -10 -17 -45 -29 -77 -26 -64 -29 -80 -15 -71 5 3 17
29 27 58 9 28 23 62 31 74 10 14 11 23 3 28 -5 3 -13 -2 -17 -12z"/>
<path d="M3916 3159 c-13 -34 -28 -109 -21 -109 2 0 13 30 25 66 23 68 20 102
-4 43z"/>
<path d="M1299 3099 c-27 -27 -98 -49 -158 -49 -44 -1 -81 -17 -81 -36 0 -6
13 -17 29 -27 31 -18 117 -24 106 -7 -6 9 18 14 67 14 13 -1 15 3 7 12 -8 9
-21 9 -63 0 -29 -7 -57 -15 -63 -19 -6 -4 -25 0 -42 9 -35 18 -41 29 -10 21
15 -4 19 -2 15 9 -4 11 4 14 35 14 58 0 132 19 149 39 8 10 24 23 35 29 11 6
14 12 8 12 -7 0 -23 -10 -34 -21z"/>
<path d="M1357 3106 c-4 -10 -1 -13 8 -9 8 3 12 9 9 14 -7 12 -11 11 -17 -5z"/>
<path d="M3587 3103 c-11 -18 -90 -252 -107 -318 -10 -38 -23 -101 -29 -140
-6 -38 -17 -108 -25 -155 -17 -100 -30 -305 -16 -250 5 19 16 98 25 175 25
226 53 358 110 529 47 141 59 187 42 159z"/>
<path d="M3665 3079 c-9 -17 -15 -35 -13 -41 2 -6 10 4 18 23 8 19 19 37 24
41 7 5 7 8 -1 8 -7 0 -20 -14 -28 -31z"/>
<path d="M3777 3043 c-16 -35 -27 -75 -25 -88 2 -16 13 3 34 61 37 101 31 119
-9 27z"/>
<path d="M1321 3066 c-15 -8 -20 -16 -12 -20 6 -4 11 -3 11 2 0 5 10 14 23 20
12 6 18 11 12 11 -5 0 -21 -6 -34 -13z"/>
<path d="M3691 3054 c0 -11 3 -14 6 -6 3 7 2 16 -1 19 -3 4 -6 -2 -5 -13z"/>
<path d="M4191 3024 c0 -11 3 -14 6 -6 3 7 2 16 -1 19 -3 4 -6 -2 -5 -13z"/>
<path d="M3631 2994 c0 -11 3 -14 6 -6 3 7 2 16 -1 19 -3 4 -6 -2 -5 -13z"/>
<path d="M5476 3002 c-3 -5 8 -6 25 -4 16 2 29 6 29 8 0 8 -49 4 -54 -4z"/>
<path d="M3962 2938 c-6 -35 -15 -80 -21 -100 -13 -55 5 -47 23 10 20 61 31
152 19 152 -5 0 -14 -28 -21 -62z"/>
<path d="M4281 2983 c-1 -12 4 -25 9 -28 12 -7 12 2 0 30 -8 19 -9 19 -9 -2z"/>
<path d="M3621 2954 c0 -11 3 -14 6 -6 3 7 2 16 -1 19 -3 4 -6 -2 -5 -13z"/>
<path d="M3653 2948 c1 -15 6 -23 11 -18 4 4 4 16 -2 26 -9 16 -10 14 -9 -8z"/>
<path d="M4250 2961 c0 -17 39 -51 58 -51 9 0 13 1 11 3 -2 1 -19 15 -37 31
-18 17 -32 24 -32 17z"/>
<path d="M1073 2935 c-3 -9 -3 -18 -1 -21 3 -3 8 4 11 16 6 23 -1 27 -10 5z"/>
<path d="M1113 2919 c9 -12 29 -30 44 -40 36 -24 63 -25 34 -1 -21 17 -21 17
31 20 29 1 57 7 62 12 12 12 -25 12 -64 1 -25 -8 -68 1 -104 20 -17 10 -17 9
-3 -12z"/>
<path d="M4779 2903 c-8 -2 -23 -17 -32 -33 -9 -15 -31 -40 -47 -53 -26 -22
-28 -29 -20 -54 5 -15 11 -59 13 -96 6 -97 20 -103 47 -20 12 37 33 94 47 127
13 32 22 65 19 73 -3 8 -2 12 3 9 5 -3 11 3 14 14 3 11 1 18 -4 14 -5 -3 -9 2
-9 10 0 16 -3 17 -31 9z"/>
<path d="M3640 2889 c0 -5 5 -7 10 -4 6 3 10 8 10 11 0 2 -4 4 -10 4 -5 0 -10
-5 -10 -11z"/>
<path d="M5820 2896 c0 -2 7 -7 16 -10 8 -3 12 -2 9 4 -6 10 -25 14 -25 6z"/>
<path d="M3591 2854 c0 -11 3 -14 6 -6 3 7 2 16 -1 19 -3 4 -6 -2 -5 -13z"/>
<path d="M5880 2853 c35 -24 43 -33 65 -70 11 -18 26 -33 34 -33 12 0 12 3 -1
18 -46 52 -100 102 -111 102 -6 0 0 -8 13 -17z"/>
<path d="M6605 2850 c10 -11 29 -19 44 -19 26 2 26 2 -2 6 -16 3 -31 11 -34
19 -3 8 -10 14 -16 14 -5 0 -2 -9 8 -20z"/>
<path d="M3822 2823 c-19 -48 -54 -185 -49 -190 5 -4 33 83 56 171 12 47 8 58
-7 19z"/>
<path d="M4174 2794 c3 -9 6 -25 7 -37 0 -21 1 -21 8 -2 9 23 3 55 -11 55 -6
0 -7 -7 -4 -16z"/>
<path d="M4250 2796 c0 -4 9 -19 20 -33 13 -17 20 -20 20 -11 0 8 -9 23 -20
33 -11 10 -20 15 -20 11z"/>
<path d="M4162 2760 c0 -14 2 -19 5 -12 2 6 2 18 0 25 -3 6 -5 1 -5 -13z"/>
<path d="M3926 2744 c-9 -36 1 -43 14 -10 12 33 12 36 1 36 -5 0 -12 -12 -15
-26z"/>
<path d="M3561 2748 c0 -9 -4 -25 -7 -35 -5 -14 -4 -15 5 -7 7 7 11 22 8 35
-2 13 -5 16 -6 7z"/>
<path d="M3671 2724 c-6 -15 -14 -47 -17 -73 l-4 -46 13 40 c15 45 28 105 23
105 -1 0 -8 -12 -15 -26z"/>
<path d="M4197 2683 c-14 -4 -16 -8 -6 -19 16 -20 28 -17 26 6 -1 11 -1 19 -2
19 0 -1 -8 -3 -18 -6z"/>
<path d="M3893 2645 c-6 -11 -14 -38 -17 -60 l-7 -40 21 50 c20 51 22 87 3 50z"/>
<path d="M932 2625 c-17 -37 -14 -45 4 -12 9 16 14 31 11 33 -2 2 -9 -7 -15
-21z"/>
<path d="M4180 2632 c0 -14 29 -79 30 -67 1 6 5 1 10 -10 7 -16 9 -17 9 -3 1
9 -3 20 -9 23 -5 3 -10 14 -10 24 0 10 -7 24 -15 31 -9 7 -15 8 -15 2z"/>
<path d="M5411 2624 c0 -11 3 -14 6 -6 3 7 2 16 -1 19 -3 4 -6 -2 -5 -13z"/>
<path d="M4805 2580 c-4 -23 -5 -44 -2 -46 3 -3 8 13 12 36 4 23 5 44 2 46 -3
3 -8 -13 -12 -36z"/>
<path d="M3641 2575 c-1 -11 -4 -31 -7 -45 -5 -22 -4 -23 6 -7 6 10 9 30 7 45
-3 18 -5 20 -6 7z"/>
<path d="M911 2564 c0 -11 3 -14 6 -6 3 7 2 16 -1 19 -3 4 -6 -2 -5 -13z"/>
<path d="M3731 2523 c-13 -47 -13 -53 -2 -53 10 0 26 78 18 87 -3 3 -10 -12
-16 -34z"/>
<path d="M4187 2536 c-3 -8 0 -22 7 -32 12 -16 13 -15 19 5 3 13 1 19 -6 14
-6 -4 -8 0 -4 10 3 10 2 17 -2 17 -5 0 -11 -6 -14 -14z"/>
<path d="M900 2460 c0 -46 3 -80 7 -77 7 7 4 149 -3 156 -2 2 -4 -33 -4 -79z"/>
<path d="M6116 2519 c-2 -8 -7 -50 -10 -94 -3 -44 -9 -93 -12 -109 -5 -19 -3
-27 4 -22 6 3 9 -1 7 -11 -20 -100 -12 -107 29 -28 25 48 28 62 23 112 -12
118 -30 186 -41 152z"/>
<path d="M3510 2514 c0 -5 -7 -52 -15 -104 -17 -110 -19 -148 -6 -135 9 11 34
236 26 243 -3 3 -5 1 -5 -4z"/>
<path d="M4148 2430 c2 -16 6 -30 8 -30 2 0 4 14 4 30 0 17 -4 30 -8 30 -5 0
-7 -13 -4 -30z"/>
<path d="M6031 2434 c0 -11 3 -14 6 -6 3 7 2 16 -1 19 -3 4 -6 -2 -5 -13z"/>
<path d="M3721 2410 c-1 -14 -4 -36 -6 -50 l-6 -25 11 25 c6 13 9 36 7 50 l-4
25 -2 -25z"/>
<path d="M3600 2391 c0 -25 6 -27 13 -6 4 8 2 17 -3 20 -6 4 -10 -3 -10 -14z"/>
<path d="M3966 2354 c-5 -14 -4 -15 9 -4 17 14 19 20 6 20 -5 0 -12 -7 -15
-16z"/>
<path d="M3590 2332 c0 -10 -4 -22 -9 -27 -11 -12 -20 -145 -10 -145 4 0 10
12 13 28 9 51 18 162 12 162 -3 0 -6 -8 -6 -18z"/>
<path d="M4143 2315 c13 -26 27 -34 23 -12 -2 18 -16 37 -26 37 -4 0 -3 -11 3
-25z"/>
<path d="M3696 2293 c-14 -76 -17 -113 -8 -113 5 0 12 21 15 48 4 26 9 57 13
70 4 12 2 22 -4 22 -6 0 -13 -12 -16 -27z"/>
<path d="M4720 2278 c0 -24 -3 -48 -7 -52 -5 -4 -8 -11 -8 -14 -1 -4 -8 -23
-17 -42 -25 -54 -28 -83 -13 -110 8 -14 18 -32 22 -40 7 -16 8 -17 48 -66 14
-18 25 -37 25 -43 0 -6 5 -11 10 -11 6 0 10 -6 10 -13 0 -7 14 -26 30 -42 33
-31 35 -30 20 10 -7 18 -7 32 0 43 9 14 10 12 5 -8 -6 -24 -5 -24 9 -6 9 11
16 15 16 9 0 -7 -4 -15 -10 -18 -5 -3 -10 -14 -10 -23 0 -15 2 -15 10 -2 8 12
9 9 6 -10 -3 -14 1 -38 8 -55 l14 -30 1 27 c1 15 -2 29 -7 32 -4 2 -7 37 -5
76 1 64 -1 75 -22 96 -13 13 -30 24 -38 24 -16 0 -62 144 -77 239 -11 78 -20
90 -20 29z m104 -313 c-4 -8 -8 -15 -10 -15 -2 0 -4 7 -4 15 0 8 4 15 10 15 5
0 7 -7 4 -15z m43 -21 c2 -13 1 -15 -4 -4 -3 8 -11 19 -17 23 -7 6 -6 7 4 4 8
-2 16 -12 17 -23z m-30 -16 c-3 -8 -6 -5 -6 6 -1 11 2 17 5 13 3 -3 4 -12 1
-19z"/>
<path d="M4126 2277 c-12 -25 1 -65 25 -78 29 -15 38 -1 12 19 -12 9 -23 31
-25 47 -3 24 -6 27 -12 12z"/>
<path d="M5950 2265 c-11 -13 -10 -14 4 -9 9 3 16 10 16 15 0 13 -6 11 -20 -6z"/>
<path d="M5521 2254 c0 -11 3 -14 6 -6 3 7 2 16 -1 19 -3 4 -6 -2 -5 -13z"/>
<path d="M3796 2229 c-3 -8 -12 -75 -21 -149 -9 -74 -21 -142 -26 -152 -12
-22 -12 -65 0 -53 5 6 17 60 26 120 10 61 23 137 31 170 7 36 9 64 4 69 -6 6
-11 4 -14 -5z"/>
<path d="M5906 2231 c-3 -5 -36 -21 -73 -37 -78 -32 -78 -32 -71 -40 3 -3 14
-1 25 5 10 5 44 21 76 35 31 14 57 30 57 35 0 13 -7 14 -14 2z"/>
<path d="M3467 2181 c-4 -18 -7 -43 -6 -55 1 -11 5 -1 10 24 5 25 7 49 6 55
-2 5 -7 -5 -10 -24z"/>
<path d="M571 2174 c0 -11 3 -14 6 -6 3 7 2 16 -1 19 -3 4 -6 -2 -5 -13z"/>
<path d="M3673 2124 c-14 -45 -37 -194 -31 -199 6 -6 51 212 46 225 -2 7 -9
-5 -15 -26z"/>
<path d="M531 2105 c-17 -20 -31 -38 -31 -40 0 -12 10 -2 40 35 39 49 33 53
-9 5z"/>
<path d="M4012 2115 c-9 -20 -9 -23 3 -18 8 3 15 14 15 24 0 25 -5 24 -18 -6z"/>
<path d="M3551 2098 c0 -28 2 -30 9 -13 12 28 12 45 0 45 -5 0 -10 -15 -9 -32z"/>
<path d="M5698 2123 c7 -3 16 -2 19 1 4 3 -2 6 -13 5 -11 0 -14 -3 -6 -6z"/>
<path d="M790 2111 c0 -4 -28 -18 -62 -30 l-63 -21 -22 25 c-23 26 -33 31 -33
17 0 -18 42 -52 64 -52 30 0 136 47 136 60 0 5 -4 10 -10 10 -5 0 -10 -4 -10
-9z"/>
<path d="M5665 2110 c-3 -5 -1 -10 4 -10 6 0 11 5 11 10 0 6 -2 10 -4 10 -3 0
-8 -4 -11 -10z"/>
<path d="M562 2085 c0 -16 2 -22 5 -12 2 9 2 23 0 30 -3 6 -5 -1 -5 -18z"/>
<path d="M3487 2091 c-4 -17 -3 -21 5 -13 5 5 8 16 6 23 -3 8 -7 3 -11 -10z"/>
<path d="M6077 2103 c-4 -3 -7 -13 -7 -22 1 -13 3 -13 11 2 11 19 8 33 -4 20z"/>
<path d="M5590 2088 c-14 -6 -20 -12 -14 -15 7 -2 27 3 45 11 24 10 28 14 14
15 -11 0 -31 -5 -45 -11z"/>
<path d="M3447 2003 c-4 -38 -6 -88 -6 -113 l1 -45 8 40 c12 66 19 185 11 185
-5 0 -11 -30 -14 -67z"/>
<path d="M4083 2030 c13 -35 23 -38 30 -11 3 14 1 18 -9 14 -8 -3 -14 1 -14
11 0 9 -4 16 -9 16 -5 0 -4 -13 2 -30z"/>
<path d="M6015 2006 c-45 -71 -60 -104 -51 -114 18 -17 124 138 110 160 -11
17 -26 6 -59 -46z"/>
<path d="M450 2010 c-6 -11 -8 -20 -6 -20 3 0 10 9 16 20 6 11 8 20 6 20 -3 0
-10 -9 -16 -20z"/>
<path d="M571 2014 c0 -11 3 -14 6 -6 3 7 2 16 -1 19 -3 4 -6 -2 -5 -13z"/>
<path d="M3521 1913 c-7 -49 -17 -131 -22 -183 -5 -52 -14 -110 -20 -128 -6
-18 -9 -36 -6 -39 13 -12 29 46 38 135 5 53 13 120 18 147 15 75 21 155 12
155 -5 0 -14 -39 -20 -87z"/>
<path d="M793 1976 c-13 -6 -23 -14 -23 -19 0 -4 14 0 30 8 17 9 35 13 40 10
5 -3 11 -1 15 5 8 13 -33 11 -62 -4z"/>
<path d="M425 1969 c-4 -6 -5 -12 -2 -15 2 -3 7 2 10 11 7 17 1 20 -8 4z"/>
<path d="M4030 1926 c0 -2 8 -10 18 -17 15 -13 16 -12 3 4 -13 16 -21 21 -21
13z"/>
<path d="M731 1904 c0 -11 3 -14 6 -6 3 7 2 16 -1 19 -3 4 -6 -2 -5 -13z"/>
<path d="M4405 1885 c-9 -22 -21 -48 -26 -57 -6 -10 -6 -18 -2 -18 14 0 56 86
51 101 -4 9 -12 -1 -23 -26z"/>
<path d="M854 1885 c-10 -8 -14 -15 -7 -15 19 0 43 11 43 21 0 13 -14 11 -36
-6z"/>
<path d="M401 1854 c0 -11 3 -14 6 -6 3 7 2 16 -1 19 -3 4 -6 -2 -5 -13z"/>
<path d="M3630 1838 c0 -36 4 -35 14 5 4 16 2 27 -4 27 -5 0 -10 -14 -10 -32z"/>
<path d="M3426 1808 c-10 -51 -14 -110 -6 -102 10 11 25 124 16 124 -3 0 -8
-10 -10 -22z"/>
<path d="M3716 1779 c-3 -13 -10 -51 -17 -83 -6 -33 -16 -70 -21 -82 -9 -20
-12 -21 -26 -8 -8 8 -17 12 -21 9 -3 -4 5 -15 18 -26 20 -17 20 -23 0 -21 -4
1 -5 -7 -2 -17 2 -10 -3 -35 -11 -56 -10 -22 -13 -42 -8 -47 6 -6 21 28 36 79
15 48 31 97 36 108 13 30 33 155 27 162 -3 3 -8 -5 -11 -18z"/>
<path d="M4327 1739 c-44 -75 -153 -295 -162 -328 -13 -45 10 -12 57 81 72
145 147 303 144 305 -1 2 -19 -25 -39 -58z"/>
<path d="M2410 1729 c0 -35 4 -69 8 -76 4 -7 7 20 5 58 -2 90 -13 104 -13 18z"/>
<path d="M5785 1732 l-69 -37 -199 3 c-149 2 -203 7 -213 16 -7 8 -10 16 -7
20 4 3 -14 6 -40 6 -25 0 -48 -4 -51 -8 -3 -5 -41 -17 -85 -27 -45 -11 -81
-23 -81 -26 0 -4 -18 -9 -40 -13 -22 -3 -40 -10 -40 -14 1 -17 28 -41 53 -47
15 -4 30 -12 33 -17 6 -9 -4 -8 -56 10 -13 4 -12 2 1 -12 20 -21 137 -39 226
-34 35 2 63 1 63 -2 0 -3 12 -5 28 -5 15 1 32 -2 37 -6 18 -12 333 62 440 104
61 23 76 40 90 100 9 36 -4 35 -90 -11z m-535 -16 c0 -11 -19 -15 -25 -6 -3 5
1 10 9 10 9 0 16 -2 16 -4z m-45 -66 c-3 -5 -12 -10 -18 -10 -7 0 -6 4 3 10
19 12 23 12 15 0z m-169 -12 c-8 -4 -25 -4 -38 1 -20 8 -18 9 15 8 24 -1 32
-4 23 -9z m77 -8 c-4 -15 0 -20 13 -21 11 0 14 -2 9 -5 -6 -2 -30 3 -55 11
-39 12 -40 14 -10 9 24 -4 31 -2 21 4 -11 8 -10 11 5 15 10 2 20 5 21 6 0 0
-1 -8 -4 -19z m52 0 c3 -5 -1 -10 -9 -10 -9 0 -16 5 -16 10 0 6 4 10 9 10 6 0
13 -4 16 -10z"/>
<path d="M3837 1736 c-4 -10 -3 -15 3 -11 6 3 11 -6 11 -22 1 -23 2 -24 6 -6
2 12 0 30 -5 39 -8 15 -10 15 -15 0z"/>
<path d="M138 1704 c-51 -26 -62 -47 -55 -105 3 -29 4 -27 5 12 2 52 15 68 82
98 25 11 38 20 30 20 -8 0 -36 -11 -62 -25z"/>
<path d="M313 1723 c9 -2 25 -2 35 0 9 3 1 5 -18 5 -19 0 -27 -2 -17 -5z"/>
<path d="M3593 1690 c-7 -25 -20 -77 -30 -117 -16 -62 -21 -70 -36 -62 -11 7
-17 6 -17 -1 0 -6 7 -13 16 -17 9 -3 13 -12 9 -22 -14 -35 -35 -125 -32 -135
8 -25 110 343 105 378 -3 15 -7 7 -15 -24z"/>
<path d="M3398 1670 c-26 -64 -40 -111 -36 -116 10 -9 50 85 45 108 -2 17 -5
19 -9 8z"/>
<path d="M4943 1541 c-23 -9 -45 -20 -49 -24 -4 -4 -15 -7 -24 -7 -22 0 -46
-28 -34 -40 9 -8 112 35 148 62 29 22 6 27 -41 9z"/>
<path d="M3310 1540 c0 -5 7 -10 16 -10 8 0 12 5 9 10 -3 6 -10 10 -16 10 -5
0 -9 -4 -9 -10z"/>
<path d="M3453 1535 c-6 -11 -14 -35 -18 -53 -6 -27 -9 -31 -21 -21 -11 9 -14
8 -14 -5 0 -33 32 -15 51 29 21 46 22 88 2 50z"/>
<path d="M3612 1531 c7 -11 16 -17 20 -14 10 5 -10 33 -23 33 -5 0 -4 -9 3
-19z"/>
<path d="M66 1525 c-9 -26 -7 -32 5 -12 6 10 9 21 6 23 -2 3 -7 -2 -11 -11z"/>
<path d="M3400 1511 c0 -5 5 -13 10 -16 6 -3 10 -2 10 4 0 5 -4 13 -10 16 -5
3 -10 2 -10 -4z"/>
<path d="M3305 1500 c4 -6 11 -8 16 -5 14 9 11 15 -7 15 -8 0 -12 -5 -9 -10z"/>
<path d="M5245 1501 c-22 -4 -45 -10 -52 -14 -6 -4 -15 -38 -18 -75 -4 -37 -9
-74 -10 -82 -5 -25 -45 -123 -60 -147 -8 -12 -31 -61 -51 -109 -20 -48 -46
-103 -58 -123 -28 -44 -38 -71 -28 -71 9 0 145 234 150 258 3 9 -1 12 -8 7
-19 -12 31 74 63 107 9 10 17 25 17 33 0 19 42 83 78 120 34 34 64 89 55 99
-7 7 -21 6 -78 -3z"/>
<path d="M3321 1464 c-12 -20 -20 -39 -17 -41 5 -5 46 57 46 70 0 15 -8 6 -29
-29z"/>
<path d="M3862 1480 c0 -14 2 -19 5 -12 2 6 2 18 0 25 -3 6 -5 1 -5 -13z"/>
<path d="M3283 1473 c9 -9 19 -14 23 -11 10 10 -6 28 -24 28 -15 0 -15 -1 1
-17z"/>
<path d="M3470 1430 c0 -5 5 -10 10 -10 6 0 10 5 10 10 0 6 -4 10 -10 10 -5 0
-10 -4 -10 -10z"/>
<path d="M4758 1408 c-15 -18 -43 -73 -63 -122 -20 -50 -48 -108 -61 -129 -13
-20 -26 -51 -28 -67 -3 -28 -48 -104 -68 -116 -10 -6 -11 -54 0 -54 31 2 122
153 122 204 0 14 14 51 30 83 17 31 30 63 30 71 0 7 16 45 35 84 19 40 33 73
32 75 -2 1 -15 -12 -29 -29z"/>
<path d="M3381 1379 c-17 -49 -12 -58 9 -19 22 40 24 50 11 50 -5 0 -14 -14
-20 -31z"/>
<path d="M3895 1399 c-4 -6 -5 -12 -2 -15 2 -3 7 2 10 11 7 17 1 20 -8 4z"/>
<path d="M3244 1375 c18 -14 18 -16 -9 -60 -15 -26 -25 -49 -22 -51 3 -3 19
20 37 51 27 46 30 59 19 66 -8 5 -21 9 -29 9 -12 -1 -11 -4 4 -15z"/>
<path d="M4146 1363 c-4 -13 -15 -23 -24 -23 -9 -1 -35 -8 -57 -16 -22 -9 -50
-17 -62 -19 -12 -2 -36 -6 -54 -10 -28 -6 -31 -5 -25 11 5 14 4 16 -4 8 -17
-17 -8 -48 14 -52 11 -2 23 3 28 12 10 18 38 22 38 6 0 -6 16 -3 38 6 20 9 51
20 68 25 38 11 57 32 52 56 -4 15 -5 15 -12 -4z"/>
<path d="M3927 1353 c-4 -3 -7 -11 -7 -17 0 -6 5 -5 12 2 6 6 9 14 7 17 -3 3
-9 2 -12 -2z"/>
<path d="M3597 1343 c-4 -3 -7 -17 -7 -29 0 -13 -4 -26 -10 -29 -5 -3 -10 -17
-10 -30 0 -13 -4 -25 -8 -27 -16 -6 -81 -158 -68 -158 9 0 66 118 66 135 0 9
5 13 10 10 6 -3 10 3 10 15 0 12 4 19 9 16 5 -3 9 0 8 7 -1 29 4 48 11 44 4
-3 8 8 9 24 2 28 -6 37 -20 22z"/>
<path d="M3459 1267 c-15 -28 -30 -61 -33 -72 -6 -15 -9 -16 -15 -6 -6 9 -11
10 -15 2 -4 -6 0 -14 8 -17 9 -3 13 -10 10 -16 -3 -5 -12 -4 -22 4 -13 11 -15
10 -9 -12 4 -16 1 -30 -10 -42 -9 -10 -13 -21 -10 -25 13 -12 47 30 67 85 11
30 32 74 45 97 26 44 30 55 18 55 -5 0 -20 -24 -34 -53z"/>
<path d="M6283 1255 c0 -22 2 -30 4 -17 2 12 2 30 0 40 -3 9 -5 -1 -4 -23z"/>
<path d="M3322 1238 c-7 -7 -12 -16 -12 -20 0 -13 -100 -157 -118 -170 -10 -7
-22 -19 -26 -26 -15 -25 27 4 57 40 32 37 117 168 117 180 0 11 -4 10 -18 -4z"/>
<path d="M6273 1165 c0 -22 2 -30 4 -17 2 12 2 30 0 40 -3 9 -5 -1 -4 -23z"/>
<path d="M3123 1163 c-7 -2 -13 -11 -13 -18 0 -7 -18 -29 -41 -50 -22 -20 -38
-39 -35 -43 7 -6 92 73 107 101 10 17 5 20 -18 10z"/>
<path d="M3040 1133 c0 -14 19 -38 25 -32 8 8 -5 39 -16 39 -5 0 -9 -3 -9 -7z"/>
<path d="M3310 1076 c0 -4 5 -17 11 -29 9 -18 9 -20 -2 -9 -20 18 -31 14 -19
-7 8 -15 5 -26 -13 -48 -55 -68 -54 -68 -29 -54 19 10 107 112 100 115 -2 1
-13 10 -25 20 -13 11 -23 16 -23 12z"/>
<path d="M6251 1064 c0 -11 3 -14 6 -6 3 7 2 16 -1 19 -3 4 -6 -2 -5 -13z"/>
<path d="M2980 1061 c0 -6 5 -13 10 -16 6 -3 10 1 10 9 0 9 -4 16 -10 16 -5 0
-10 -4 -10 -9z"/>
<path d="M2950 1055 c0 -3 7 -16 15 -29 15 -22 14 -24 -8 -39 -12 -8 -35 -13
-51 -12 -24 3 -27 1 -22 -18 3 -11 0 -28 -7 -36 -16 -20 36 11 82 48 33 27 34
30 22 60 -11 26 -31 43 -31 26z"/>
<path d="M3426 1015 c4 -26 -5 -38 -39 -53 -15 -7 -26 -16 -23 -21 3 -5 -8
-27 -24 -50 -17 -22 -26 -41 -21 -41 5 0 17 12 27 28 9 15 25 33 35 40 10 7
16 19 12 27 -3 11 -1 13 10 9 9 -3 23 6 37 25 17 24 18 31 6 31 -8 0 -16 6
-19 13 -2 6 -3 3 -1 -8z"/>
<path d="M6241 1024 c0 -11 3 -14 6 -6 3 7 2 16 -1 19 -3 4 -6 -2 -5 -13z"/>
<path d="M3384 1004 c3 -8 6 -18 6 -20 0 -2 5 -4 10 -4 16 0 11 27 -6 34 -12
5 -15 2 -10 -10z"/>
<path d="M3080 990 c0 -5 5 -10 10 -10 6 0 10 5 10 10 0 6 -4 10 -10 10 -5 0
-10 -4 -10 -10z"/>
<path d="M3113 981 c4 -16 -46 -52 -64 -46 -13 4 -16 1 -13 -12 3 -12 -7 -27
-30 -45 l-34 -27 -7 22 c-4 15 -8 18 -12 9 -3 -8 2 -21 10 -30 15 -14 20 -13
54 11 41 29 78 62 106 96 21 26 21 31 2 31 -8 0 -14 -4 -12 -9z"/>
<path d="M3220 950 c0 -5 5 -10 11 -10 5 0 7 5 4 10 -3 6 -8 10 -11 10 -2 0
-4 -4 -4 -10z"/>
<path d="M6208 903 c-4 -74 -3 -100 3 -128 4 -18 7 5 8 63 1 50 -1 92 -4 92
-3 0 -6 -12 -7 -27z"/>
<path d="M1660 910 c0 -5 23 -21 50 -35 47 -24 82 -66 67 -81 -3 -3 -42 8 -87
25 -88 34 -114 38 -108 19 3 -7 42 -28 87 -47 89 -37 93 -50 18 -58 -32 -4
-57 1 -92 16 -55 24 -85 27 -85 8 0 -29 127 -71 198 -65 73 6 105 37 104 103
-1 53 -19 73 -90 105 -49 22 -62 24 -62 10z"/>
<path d="M2810 910 c0 -5 5 -10 10 -10 6 0 10 5 10 10 0 6 -4 10 -10 10 -5 0
-10 -4 -10 -10z"/>
<path d="M2777 894 c6 -17 36 -19 31 -2 -2 6 -11 12 -20 14 -11 1 -15 -3 -11
-12z"/>
<path d="M2758 845 c-33 -18 -48 -21 -51 -12 -3 7 -6 5 -6 -5 -1 -9 3 -19 8
-22 11 -7 89 35 96 52 6 16 8 16 -47 -13z"/>
<path d="M5805 859 c-4 -6 -4 -13 -1 -16 3 -4 6 -1 6 6 0 7 5 9 12 5 7 -4 8
-3 4 4 -9 15 -13 15 -21 1z"/>
<path d="M2820 823 c0 -17 11 -43 19 -43 15 1 42 30 37 39 -9 14 -37 2 -30
-13 3 -6 -2 -2 -10 8 -9 11 -16 15 -16 9z"/>
<path d="M4212 789 c-51 -30 -78 -61 -68 -78 6 -8 90 8 199 38 31 8 70 26 85
39 15 13 20 21 11 19 -9 -3 -21 -1 -27 5 -12 12 -35 1 -27 -13 4 -5 -6 -8 -22
-8 -17 1 -21 3 -10 6 36 9 15 23 -35 23 -41 0 -65 -8 -106 -31z m193 -8 c-3
-6 -11 -11 -16 -11 -5 0 -4 6 3 14 14 16 24 13 13 -3z"/>
<path d="M6016 755 c-3 -9 -6 -22 -5 -28 0 -7 5 -1 10 12 5 13 8 26 5 28 -2 2
-6 -3 -10 -12z"/>
<path d="M2900 750 c0 -5 5 -10 11 -10 5 0 7 5 4 10 -3 6 -8 10 -11 10 -2 0
-4 -4 -4 -10z"/>
<path d="M2473 744 c-14 -6 -6 -34 11 -34 6 0 22 10 36 21 l25 20 -34 -16
c-31 -15 -33 -15 -28 -1 4 9 5 16 4 15 -1 0 -7 -3 -14 -5z"/>
<path d="M5853 720 c4 -16 2 -32 -3 -35 -6 -3 -10 -11 -10 -18 0 -6 6 -3 13 7
12 16 15 15 32 -18 11 -20 23 -36 27 -36 5 0 8 -6 8 -14 0 -7 24 -36 54 -65
58 -54 89 -71 42 -22 -16 16 -25 34 -22 40 5 7 1 8 -10 4 -14 -5 -16 -3 -11
11 4 9 3 15 -2 12 -13 -8 -34 21 -25 35 4 8 3 9 -4 5 -7 -4 -19 9 -31 33 -12
22 -25 42 -31 46 -5 3 -10 15 -10 26 0 10 -5 19 -11 19 -7 0 -9 -11 -6 -30z"/>
<path d="M4863 718 c-6 -7 -30 -50 -53 -95 -24 -46 -48 -83 -53 -83 -17 0
-177 -171 -171 -182 4 -6 2 -8 -4 -4 -5 3 -12 3 -15 -1 -2 -5 -2 -2 -1 5 4 16
-2 15 -26 -5 -23 -20 -24 -33 -9 -85 11 -43 26 -49 31 -15 2 12 2 -29 0 -90
-3 -80 -1 -113 7 -113 6 0 11 15 11 34 0 18 7 53 15 76 8 23 15 61 16 84 0 27
3 35 8 23 5 -15 9 -11 20 20 7 21 32 63 54 93 23 30 42 61 44 69 1 7 19 38 39
70 21 31 47 74 57 96 11 22 26 54 35 72 16 33 13 54 -5 31z m-260 -405 c7 -7
-11 -33 -23 -33 -4 0 -11 7 -14 16 -6 15 -4 15 11 3 15 -12 16 -12 10 4 -6 17
3 23 16 10z"/>
<path d="M5706 698 c3 -4 12 -4 21 -1 12 5 14 3 8 -7 -5 -9 -4 -11 4 -6 16 10
4 25 -19 23 -10 -1 -17 -5 -14 -9z"/>
<path d="M5942 667 c18 -27 36 -51 41 -54 16 -9 -10 31 -43 67 l-32 35 34 -48z"/>
<path d="M5856 655 c-9 -26 -7 -32 5 -12 6 10 9 21 6 23 -2 3 -7 -2 -11 -11z"/>
<path d="M1469 650 c-9 -5 -22 -23 -29 -40 -7 -17 -18 -30 -24 -29 -39 5 -52
-24 -17 -36 16 -5 19 -12 14 -40 -8 -49 3 -80 33 -94 34 -15 65 3 84 49 13 30
14 31 27 14 16 -22 17 -68 1 -94 -10 -15 -10 -22 0 -32 27 -27 65 56 52 112
-5 19 0 31 22 52 31 29 38 81 15 113 -20 26 -37 10 -30 -29 4 -27 1 -36 -18
-50 -37 -25 -46 -20 -46 29 0 67 -38 102 -84 75z m49 -75 c3 -22 0 -27 -13
-21 -9 3 -21 6 -26 6 -13 0 -11 24 3 38 18 18 33 9 36 -23z m-29 -64 c11 -7
10 -13 -4 -35 -24 -36 -35 -33 -35 9 0 35 12 43 39 26z"/>
<path d="M2300 640 c-18 -11 -10 -19 26 -26 28 -5 28 -5 10 15 -11 12 -20 21
-20 21 -1 0 -8 -4 -16 -10z"/>
<path d="M5866 625 c-3 -9 -2 -14 3 -11 5 3 14 -8 21 -24 7 -17 17 -30 22 -30
6 0 7 -7 4 -16 -3 -8 -2 -13 3 -9 5 3 23 -7 39 -22 16 -16 40 -36 53 -46 24
-18 24 -18 2 -12 -14 4 -23 2 -23 -5 0 -6 4 -8 10 -5 5 3 17 -3 27 -15 10 -11
22 -20 27 -20 5 0 1 9 -9 20 -20 23 -10 27 14 6 9 -7 31 -18 49 -24 28 -10 32
-9 32 6 0 9 -5 24 -11 32 -9 13 -10 12 -5 -2 3 -12 0 -18 -9 -18 -8 0 -15 5
-15 11 0 5 -4 8 -10 4 -5 -3 -16 7 -25 22 -9 15 -14 20 -11 10 5 -16 2 -15
-26 5 -38 27 -104 92 -134 131 -18 23 -23 25 -28 12z"/>
<path d="M5857 594 c-11 -11 -8 -26 3 -19 6 3 10 -2 11 -12 0 -10 3 -13 5 -6
7 15 -10 46 -19 37z"/>
<path d="M2900 550 c8 -5 22 -10 30 -10 13 0 13 1 0 10 -8 5 -22 10 -30 10
-13 0 -13 -1 0 -10z"/>
<path d="M390 482 c18 -48 65 -122 77 -122 2 0 -9 19 -25 43 -15 23 -34 58
-42 77 -7 19 -17 40 -22 45 -5 6 0 -14 12 -43z"/>
<path d="M6242 500 c0 -14 2 -19 5 -12 2 6 2 18 0 25 -3 6 -5 1 -5 -13z"/>
<path d="M5959 477 c6 -8 7 -18 3 -22 -4 -5 -1 -5 6 -1 10 6 10 11 1 22 -6 8
-14 14 -16 14 -3 0 0 -6 6 -13z"/>
<path d="M6198 367 c-20 -56 -54 -156 -74 -222 -20 -66 -39 -126 -41 -132 -3
-7 -1 -13 4 -13 5 0 26 60 47 133 21 72 54 176 73 230 19 54 33 100 31 102 -2
2 -20 -42 -40 -98z"/>
<path d="M6063 395 c-7 -8 -9 -16 -4 -19 5 -3 11 0 14 8 4 9 14 12 27 9 13 -4
19 -11 16 -20 -3 -8 -1 -11 4 -8 13 8 13 -1 -1 -26 -6 -12 -17 -18 -25 -15 -9
3 -12 1 -9 -5 4 -5 1 -16 -5 -24 -7 -8 -9 -15 -4 -14 15 0 74 80 73 98 0 11
-2 12 -6 3 -4 -10 -7 -10 -17 1 -17 22 -49 28 -63 12z"/>
<path d="M470 343 c0 -5 18 -27 40 -48 22 -21 40 -36 40 -32 0 4 -18 26 -40
48 -22 22 -40 37 -40 32z"/>
<path d="M1363 323 c-9 -22 5 -30 109 -57 117 -31 118 -31 118 -6 0 15 -14 23
-67 39 -123 36 -154 41 -160 24z"/>
<path d="M560 254 c1 -15 99 -86 139 -100 20 -7 47 -13 61 -13 14 0 1 7 -29
15 -44 12 -101 41 -121 64 -18 19 -50 42 -50 34z"/>
<path d="M3140 210 c0 -5 4 -10 9 -10 4 0 24 -13 42 -30 19 -16 45 -35 59 -42
14 -7 41 -22 60 -34 19 -12 53 -28 75 -34 22 -7 42 -16 45 -20 8 -10 71 -40
86 -40 21 0 28 22 10 32 -9 5 -14 13 -11 19 3 5 -1 6 -9 3 -10 -4 -17 -1 -18
7 0 8 -2 19 -3 24 -2 6 -3 16 -4 23 -1 17 -45 33 -106 39 -27 2 -72 16 -98 29
-29 15 -56 22 -68 19 -11 -4 -25 0 -35 9 -18 18 -34 21 -34 6z m147 -71 c30
-17 52 -33 49 -36 -3 -3 -18 4 -34 16 -17 12 -34 21 -39 21 -11 1 -49 30 -39
30 5 0 33 -14 63 -31z"/>
<path d="M1356 192 c-11 -18 34 -39 120 -56 100 -20 114 -20 114 -1 0 27 -55
45 -181 61 -29 4 -49 2 -53 -4z"/>
<path d="M6027 180 c3 -14 6 -43 6 -65 l-1 -40 8 35 c6 23 4 44 -6 65 -11 23
-12 24 -7 5z"/>
<path d="M2341 126 c14 -8 39 -17 55 -20 16 -3 51 -17 79 -32 88 -46 179 -74
239 -74 73 0 67 10 -36 61 -62 30 -84 36 -94 28 -11 -9 -14 -8 -14 0 0 7 -4
10 -9 7 -5 -4 -22 -1 -38 5 -25 10 -74 20 -173 35 l-35 5 26 -15z"/>
<path d="M6021 54 c0 -11 3 -14 6 -6 3 7 2 16 -1 19 -3 4 -6 -2 -5 -13z"/>
<path d="M1398 46 c-24 -18 -23 -46 1 -46 11 0 23 5 27 11 7 11 77 8 137 -7
26 -6 28 -4 25 17 -2 19 -11 25 -43 31 -64 11 -129 8 -147 -6z"/>
</g>
</svg>
